<?xml version="1.0" encoding="UTF-8" standalone="no"?>
<!-- Created with Inkscape (http://www.inkscape.org/) -->

<svg
   width="89.741951mm"
   height="68.470856mm"
   viewBox="0 0 89.741951 68.470855"
   version="1.1"
   id="svg1"
   xml:space="preserve"
   inkscape:version="1.4.3 (0d15f75, 2025-12-25)"
   xmlns:inkscape="http://www.inkscape.org/namespaces/inkscape"
   xmlns:sodipodi="http://sodipodi.sourceforge.net/DTD/sodipodi-0.dtd"
   xmlns="http://www.w3.org/2000/svg"
   xmlns:svg="http://www.w3.org/2000/svg"><sodipodi:namedview
     id="namedview1"
     pagecolor="#ffffff"
     bordercolor="#666666"
     borderopacity="1.0"
     inkscape:showpageshadow="2"
     inkscape:pageopacity="0.0"
     inkscape:pagecheckerboard="0"
     inkscape:deskcolor="#d1d1d1"
     inkscape:document-units="mm"
     inkscape:zoom="1.0167041"
     inkscape:cx="161.30554"
     inkscape:cy="-23.113903"
     inkscape:window-width="1920"
     inkscape:window-height="1009"
     inkscape:window-x="-8"
     inkscape:window-y="-8"
     inkscape:window-maximized="1"
     inkscape:current-layer="layer1" /><defs
     id="defs1" /><g
     inkscape:label="Layer 1"
     inkscape:groupmode="layer"
     id="layer1"
     transform="translate(-54.438577,-115.35285)"><g
       id="g22"
       transform="translate(-1.561418,-1.3011814)"><path
         style="fill:#fbe45a"
         d="m 89.518603,184.55013 c -10.239758,-3.65479 -13.365256,-17.69381 -5.593662,-25.12543 3.112768,-2.97659 3.820165,-5.78242 0.742655,-2.94567 -4.768775,4.3957 -11.186088,4.71035 -15.703197,0.76995 -1.615491,-1.40924 -3.559041,-0.61704 -4.917712,2.00448 -0.951315,1.83554 -0.565135,6.33029 0.671954,7.82089 1.477034,1.77972 -2.303749,-0.033 -4.65402,-2.23144 -11.497512,-10.75457 3.363516,-30.31876 20.07855,-26.43293 7.738406,1.79899 10.706779,1.9451 9.248504,0.45523 -1.651115,-1.68688 -3.667131,-4.32957 -4.702733,-6.16455 -1.534135,-2.71834 -4.254784,-1.78093 -5.894642,2.03102 -0.915743,2.1287 -0.827284,2.12505 -1.821045,0.0752 -2.983724,-6.1546 1.329051,-13.98899 8.672169,-15.75347 0.582083,-0.13987 1.646906,-0.65807 2.366273,-1.15156 1.253459,-0.85988 1.481226,-0.89167 5.468056,-0.76315 6.535397,0.21068 8.336767,1.22367 12.443447,6.99747 5.2908,7.43862 7.71574,8.63405 13.53685,6.67333 12.56152,-4.23109 19.44485,1.00105 24.52783,18.64405 0.76761,2.66436 1.51739,5.15441 1.66619,5.53344 0.23799,0.60622 0.0653,0.56885 -1.43543,-0.31062 l -1.70598,-0.99977 0.25747,0.83979 c 0.72951,2.37948 0.67178,6.30785 -0.0927,6.30785 -1.27432,0 -4.39401,-1.40993 -6.30506,-2.84955 -1.84363,-1.38883 -2.61985,-1.76528 -1.94404,-0.94282 0.35334,0.43002 1.48794,7.20941 1.48794,8.89068 v 0.84362 l -3.07077,-1.23823 c -1.68893,-0.68103 -3.45659,-1.54172 -3.92813,-1.91264 -1.00528,-0.79075 -1.46777,-0.85621 -1.46777,-0.20775 0,4.98897 -7.13036,10.50142 -13.87621,10.72764 l -3.93907,0.1321 0.88195,-0.72852 c 0.48507,-0.40068 1.4579,-1.19558 2.16185,-1.76645 2.64832,-2.14764 4.1234,-6.30353 2.57114,-7.24392 -1.44839,-0.87745 -3.74421,-2.97209 -4.94045,-4.50751 -1.64997,-2.11781 -2.3951,-2.30509 -4.78108,-1.20168 -1.03985,0.48089 -2.52563,1.08095 -3.30174,1.33349 -2.295983,0.74707 -2.411406,0.956 -1.91685,3.46977 1.03121,5.24154 -3.299677,11.38281 -6.731893,9.54594 -0.985545,-0.52744 -1.052647,-0.46175 -1.052647,1.03056 0,3.46077 3.601275,7.71649 7.36647,8.70514 l 1.62936,0.42783 -1.763885,0.80904 c -2.427277,1.1133 -7.677255,1.32312 -10.237932,0.40915 z m -2.229562,-5.11687 c -1.38468,-2.24556 -1.895135,-4.25594 -2.037802,-8.02569 -0.142573,-3.76726 -0.383801,-4.25672 -1.423678,-2.88869 -0.430581,0.56646 -0.63478,2.3805 -0.484011,4.2998 0.107521,1.36875 1.304672,3.84017 2.854532,5.89295 1.572829,2.0832 2.176946,2.4828 1.090959,0.72163 z m 34.236179,-14.11111 c 1.57739,-2.9833 1.03344,-8.73125 -0.82627,-8.73125 -0.87517,0 -1.05637,0.12293 -0.90999,0.61736 1.312,4.43154 1.44861,5.35775 1.10062,7.46191 -0.423,2.55768 -0.38992,2.59161 0.63564,0.65198 z M 61.063096,151.03672 c 2.067036,-2.90288 5.859772,-5.05708 9.343956,-5.30718 l 2.400517,-0.17231 -0.942656,-0.98392 c -4.134089,-4.31506 -12.910777,2.43471 -12.842694,9.87676 0.01147,1.25341 0.01418,1.25117 0.623986,-0.51238 0.336858,-0.97419 0.974459,-2.27963 1.416891,-2.90097 z M 81.592377,125.8573 c 2.215933,-1.48823 5.849859,-2.23358 8.575599,-1.75891 1.230911,0.21435 2.348155,0.38974 2.482765,0.38974 0.591228,0 -0.943041,-2.15613 -1.878492,-2.63987 -3.705136,-1.916 -9.597398,0.64936 -11.530323,5.02005 -1.05766,2.39156 -1.044147,2.63537 0.0629,1.13485 0.490241,-0.66448 1.519639,-1.63012 2.287551,-2.14586 z"
         id="path28" /><path
         style="fill:#fcd206"
         d="m 89.397832,184.47965 c -9.949653,-3.68331 -13.234297,-17.94693 -5.708644,-24.78987 2.193694,-1.99469 2.807444,-2.88898 2.825679,-4.11729 0.01162,-0.78258 -0.105955,-0.73122 -1.665393,0.72745 -4.714368,4.40974 -10.555817,4.91304 -15.335902,1.32136 -4.399663,-3.30585 -8.030193,3.1928 -5.022463,8.9902 0.738502,1.42346 0.447399,1.5014 -1.451486,0.38857 -15.583312,-9.13242 -1.803751,-32.89374 16.608579,-28.63963 7.628571,1.76255 12.628487,2.06371 9.884906,0.59539 -0.488991,-0.2617 -0.889073,-0.62307 -0.889073,-0.80304 0,-0.17998 -0.65055,-1.06597 -1.445666,-1.96886 -0.795115,-0.9029 -1.946053,-2.55257 -2.557638,-3.66592 -0.611586,-1.11336 -1.213702,-2.02617 -1.338037,-2.02848 -0.979965,-0.0181 -3.76064,2.54799 -4.560429,4.20858 l -0.905937,1.88097 -0.849948,-1.90034 c -2.70648,-6.05123 2.423607,-15.48228 8.421698,-15.48228 0.36743,0 1.28552,-0.43238 2.0402,-0.96084 1.614762,-1.13073 6.34395,-1.52858 9.754303,-0.82059 3.929049,0.81566 5.533399,2.20662 10.302899,8.93253 3.4697,4.89295 6.53302,6.25942 10.84368,4.83711 12.50901,-4.12738 19.82567,0.0322 24.21182,13.76457 3.44832,10.79617 3.45666,10.86235 1.19335,9.46355 l -1.24104,-0.76701 0.24398,1.03159 c 0.79638,3.3673 0.65562,6.14687 -0.31129,6.14687 -0.88002,0 -4.43404,-1.71278 -6.22729,-3.00111 -1.94341,-1.39619 -2.23219,-1.49577 -1.75568,-0.60541 0.30063,0.56174 0.80877,3.47374 1.35592,7.77042 l 0.19332,1.51807 -1.01814,-0.24433 c -1.44771,-0.34743 -5.25221,-2.08953 -6.49352,-2.97342 -0.9204,-0.65539 -1.051,-0.67495 -1.051,-0.15743 0,2.64329 -4.25178,8.07317 -7.61993,9.73131 -2.48986,1.22575 -9.66618,2.01339 -9.66618,1.06092 0,-0.21947 0.13017,-0.39902 0.28928,-0.39902 3.10864,0 6.78347,-7.77887 4.38893,-9.29048 -0.7698,-0.48595 -2.17701,-1.71258 -3.12712,-2.72583 -0.95011,-1.01326 -2.07745,-2.21661 -2.50519,-2.6741 -0.94595,-1.01175 -2.02793,-1.05439 -3.52911,-0.13907 -0.6225,0.37955 -1.97187,0.93698 -2.99861,1.23872 -2.973995,0.874 -2.94617,0.83391 -2.44951,3.52938 1.04101,5.64974 -2.110306,10.30849 -6.491988,9.59744 -4.499406,-0.73015 1.314164,8.5738 6.150898,9.84381 l 1.62936,0.42783 -1.763885,0.80904 c -2.520012,1.15584 -7.694326,1.32501 -10.358703,0.33867 z m -2.289616,-5.39916 c -1.251602,-2.18201 -2.070904,-5.92382 -1.936081,-8.84224 0.123089,-2.6644 -0.208085,-3.20185 -1.258053,-2.04165 -1.921431,2.12316 -0.454648,7.63466 3.084315,11.58944 1.044891,1.16766 1.074646,0.97649 0.109819,-0.70555 z m 34.413594,-13.75834 c 1.56127,-2.96556 1.04506,-8.73125 -0.78172,-8.73125 -1.23742,0 -1.30828,0.40322 -0.44823,2.5505 0.63375,1.58228 0.82053,5.06327 0.36004,6.70992 -0.39387,1.40839 -0.0353,1.19029 0.86991,-0.52917 z m -62.15833,-10.4227 c 0,-3.68634 6.040927,-8.74123 10.988945,-9.19526 l 2.460627,-0.22579 -1.269808,-1.2284 c -3.072248,-2.97208 -9.949219,0.74521 -11.738262,6.34501 -0.90119,2.82078 -1.310774,5.43316 -0.8026,5.11909 0.198604,-0.12274 0.361098,-0.48934 0.361098,-0.81465 z m 18.686601,-9.35593 c 0.168299,-0.42387 0.400167,-1.06636 0.515262,-1.42777 0.180434,-0.56656 0.289492,-0.59086 0.791625,-0.17638 0.454887,0.37548 0.614848,0.38417 0.730779,0.0397 0.220008,-0.65368 1.87696,-0.53434 2.449058,0.17639 0.407647,0.50643 0.404811,0.42719 -0.01579,-0.44098 -1.178147,-2.43185 -3.627361,-3.76716 -7.282541,-3.97044 -4.088247,-0.22737 -4.615975,0.37923 -2.211026,2.54149 1.004086,0.90276 2.015101,2.16541 2.246698,2.80588 0.526873,1.45704 2.264542,1.74003 2.77593,0.45208 z m -2.247157,-0.45317 c -0.125551,-0.32718 -0.1489,-0.67425 -0.05189,-0.77127 0.09701,-0.097 0.279113,0.0913 0.404664,0.41849 0.125551,0.32718 0.148899,0.67425 0.05188,0.77126 -0.09701,0.097 -0.279112,-0.0913 -0.404663,-0.41848 z m 48.269236,-5.14164 c 0.72222,-0.68522 -5.7794,-4.1717 -7.77943,-4.1717 -0.39315,0 3.00212,4.02512 3.72999,4.42193 1.16267,0.63384 3.25383,0.50462 4.04944,-0.25023 z m -6.48983,-0.97705 c -0.2019,-0.37725 -0.52725,-0.78489 -0.72301,-0.90588 -0.19576,-0.12098 -0.67438,-0.8442 -1.06361,-1.60715 -0.97681,-1.91471 -1.80523,-1.89373 -1.31609,0.0333 0.29599,1.16609 0.4804,1.38247 1.02968,1.20813 0.36802,-0.1168 0.62545,-0.0626 0.57207,0.12035 -0.0534,0.18299 0.29982,0.66592 0.78489,1.07318 1.09944,0.92308 1.17259,0.93105 0.71607,0.078 z m -4.73092,-3.67747 c -0.39261,-0.93966 -3.34954,-3.9613 -3.58175,-3.66015 -0.28183,0.3655 -0.46864,3.09621 -0.20048,2.93048 0.1834,-0.11335 1.09368,0.59685 2.02284,1.57822 1.9023,2.00919 2.77714,1.58726 1.75939,-0.84855 z m 7.71901,-1.85794 c 0.68539,-0.53858 0.68035,-0.54721 -0.17639,-0.30191 -1.07653,0.30825 -1.76657,0.88349 -1.04069,0.86757 0.28134,-0.006 0.82903,-0.26072 1.21708,-0.56566 z m 2.69353,-0.99682 c 0.65286,-0.28344 1.00682,-0.52157 0.78656,-0.52916 -0.22026,-0.008 -0.93463,0.2181 -1.5875,0.50155 -0.65287,0.28344 -1.00682,0.52157 -0.78656,0.52916 0.22026,0.008 0.93463,-0.2181 1.5875,-0.50155 z m 4.27383,-0.42383 c -0.24253,-0.0979 -0.63941,-0.0979 -0.88194,0 -0.24254,0.0979 -0.0441,0.17793 0.44097,0.17793 0.48507,0 0.68351,-0.0801 0.44097,-0.17793 z m -1.76388,-0.35278 c -0.24254,-0.0979 -0.63941,-0.0979 -0.88195,0 -0.24253,0.0979 -0.0441,0.17794 0.44097,0.17794 0.48507,0 0.68351,-0.0801 0.44098,-0.17794 z m -18.79843,-2.25408 c -0.42324,-0.59437 -0.86666,-0.98353 -0.9854,-0.8648 -0.11873,0.11873 -0.0527,0.32631 0.14671,0.46128 0.19942,0.13497 0.58868,0.80103 0.865,1.48013 0.34927,0.85834 0.53911,1.04715 0.62281,0.6194 0.0662,-0.33843 -0.22589,-1.10163 -0.64912,-1.69601 z m -3.62149,-2.67767 c -0.49592,-4.80501 -3.97293,-7.52881 -10.300223,-8.06891 -2.129511,-0.18178 -2.364428,-0.14737 -1.706554,0.24994 0.41959,0.25341 1.332402,0.98053 2.028472,1.61583 0.69607,0.6353 1.265582,0.99248 1.265582,0.79375 0,-1.13612 1.998562,0.18557 4.788077,3.16645 2.436666,2.60381 3.012056,3.38371 3.217546,4.36111 0.36668,1.74402 0.93119,0.053 0.7071,-2.11817 z m -21.972756,-0.71426 c 2.616383,-1.71508 5.948343,-2.33385 9.613139,-1.78522 2.150153,0.32188 2.301092,-0.44322 0.402588,-2.0407 -3.127277,-2.63143 -9.997562,-0.0432 -12.148944,4.57685 -1.099534,2.36123 -1.059708,3.14778 0.07108,1.40385 0.498085,-0.76817 1.426046,-1.73782 2.062135,-2.15478 z"
         id="path27" /><path
         style="fill:#f0a001"
         d="m 89.397832,184.47965 c -9.949653,-3.68331 -13.234297,-17.94693 -5.708644,-24.78987 2.193694,-1.99469 2.807444,-2.88898 2.825679,-4.11729 0.01162,-0.78258 -0.105955,-0.73122 -1.665393,0.72745 -4.714368,4.40974 -10.555817,4.91304 -15.335902,1.32136 -4.399663,-3.30585 -8.030193,3.1928 -5.022463,8.9902 0.738502,1.42346 0.447399,1.5014 -1.451486,0.38857 -15.583312,-9.13242 -1.803751,-32.89374 16.608579,-28.63963 7.628571,1.76255 12.628487,2.06371 9.884906,0.59539 -0.488991,-0.2617 -0.889073,-0.62307 -0.889073,-0.80304 0,-0.17998 -0.65055,-1.06597 -1.445666,-1.96886 -0.795115,-0.9029 -1.946053,-2.55257 -2.557638,-3.66592 -0.611586,-1.11336 -1.213702,-2.02617 -1.338037,-2.02848 -0.979965,-0.0181 -3.76064,2.54799 -4.560429,4.20858 l -0.905937,1.88097 -0.849948,-1.90034 c -2.70648,-6.05123 2.423607,-15.48228 8.421698,-15.48228 0.36743,0 1.28552,-0.43238 2.0402,-0.96084 1.614762,-1.13073 6.34395,-1.52858 9.754303,-0.82059 3.929049,0.81566 5.533399,2.20662 10.302899,8.93253 3.4697,4.89295 6.53302,6.25942 10.84368,4.83711 12.50901,-4.12738 19.82567,0.0322 24.21182,13.76457 3.44832,10.79617 3.45666,10.86235 1.19335,9.46355 l -1.24104,-0.76701 0.24398,1.03159 c 0.79638,3.3673 0.65562,6.14687 -0.31129,6.14687 -0.88002,0 -4.43404,-1.71278 -6.22729,-3.00111 -1.94341,-1.39619 -2.23219,-1.49577 -1.75568,-0.60541 0.30063,0.56174 0.80877,3.47374 1.35592,7.77042 l 0.19332,1.51807 -1.01814,-0.24433 c -1.44771,-0.34743 -5.25221,-2.08953 -6.49352,-2.97342 -0.9204,-0.65539 -1.051,-0.67495 -1.051,-0.15743 0,2.64329 -4.25178,8.07317 -7.61993,9.73131 -2.48986,1.22575 -9.66618,2.01339 -9.66618,1.06092 0,-0.21947 0.13017,-0.39902 0.28928,-0.39902 3.10864,0 6.78347,-7.77887 4.38893,-9.29048 -0.7698,-0.48595 -2.17701,-1.71258 -3.12712,-2.72583 -0.95011,-1.01326 -2.07745,-2.21661 -2.50519,-2.6741 -0.94595,-1.01175 -2.02793,-1.05439 -3.52911,-0.13907 -0.6225,0.37955 -1.97187,0.93698 -2.99861,1.23872 -2.973995,0.874 -2.94617,0.83391 -2.44951,3.52938 1.04101,5.64974 -2.110306,10.30849 -6.491988,9.59744 -4.499406,-0.73015 1.314164,8.5738 6.150898,9.84381 l 1.62936,0.42783 -1.763885,0.80904 c -2.520012,1.15584 -7.694326,1.32501 -10.358703,0.33867 z m -2.289616,-5.39916 c -1.251602,-2.18201 -2.070904,-5.92382 -1.936081,-8.84224 0.123089,-2.6644 -0.208085,-3.20185 -1.258053,-2.04165 -1.921431,2.12316 -0.454648,7.63466 3.084315,11.58944 1.044891,1.16766 1.074646,0.97649 0.109819,-0.70555 z m 34.413594,-13.75834 c 1.56127,-2.96556 1.04506,-8.73125 -0.78172,-8.73125 -1.23742,0 -1.30828,0.40322 -0.44823,2.5505 0.63375,1.58228 0.82053,5.06327 0.36004,6.70992 -0.39387,1.40839 -0.0353,1.19029 0.86991,-0.52917 z m -36.325121,-0.43217 c 2.243861,-0.66636 3.006995,-0.67132 4.241096,-0.0276 1.1502,0.6 1.230865,0.46553 0.262128,-0.43699 -1.018078,-0.94848 -0.342974,-3.10534 0.783314,-2.50257 0.532346,0.2849 0.651071,0.27879 0.464001,-0.0239 -1.474267,-2.38541 -5.091181,-2.20748 -7.038697,0.34628 -1.384872,1.81596 -2.330777,4.99011 -1.128908,3.78824 0.333053,-0.33305 1.420733,-0.84764 2.417066,-1.14351 z m 11.751425,-2.13843 c -1.304018,-3.41452 -5.948422,-6.29806 -7.853328,-4.87584 -1.43191,1.06907 -1.337991,1.40122 0.592501,2.09542 0.979121,0.35208 2.326811,1.15572 2.994868,1.78585 0.668056,0.63013 1.659962,1.39037 2.204236,1.68942 0.544273,0.29905 1.307088,0.94003 1.695144,1.4244 0.980398,1.22371 1.187038,0.0291 0.366579,-2.11925 z m 30.466306,-6.80253 c 0.0909,-3.02844 -2.71628,-7.5948 -5.34371,-8.69234 -5.36414,-2.24073 -12.08787,5.14851 -9.3177,10.23998 l 0.56286,1.03452 -0.20446,-1.61315 c -0.32465,-2.56135 3.98754,-6.49763 7.56041,-6.90136 2.4422,-0.27596 4.33736,0.46563 5.08207,1.98866 0.85634,1.75133 0.77642,2.07403 -0.16697,0.67413 -2.52256,-3.74322 -9.28867,-2.1512 -9.8768,2.32394 -0.102,0.77611 -0.30079,1.72861 -0.44175,2.11667 -0.1481,0.40771 0.21134,0.15805 0.85149,-0.59142 2.59172,-3.03436 8.27622,-2.735 9.84769,0.5186 0.20678,0.4281 0.3867,0.59212 0.39983,0.36447 0.0131,-0.22765 -0.4071,-0.94202 -0.93385,-1.5875 -0.66823,-0.81885 -0.72826,-0.97654 -0.19861,-0.52168 0.4175,0.35856 0.93847,0.54107 1.1577,0.40557 0.22762,-0.14067 0.37055,-0.042 0.33321,0.23003 -0.036,0.26201 -0.0308,1.032 0.0116,1.7111 0.097,1.55556 0.6186,0.24558 0.67702,-1.70022 z m -32.718364,0.9689 c -0.454929,-0.36882 -1.447117,-0.83753 -2.204861,-1.04157 -0.757744,-0.20403 -1.377716,-0.53298 -1.377716,-0.73098 0,-0.198 -0.15875,-0.26188 -0.352778,-0.14197 -0.409855,0.25331 -0.478645,0.9044 -0.08819,0.83475 0.714934,-0.12752 2.56489,0.55584 3.476143,1.28407 0.561975,0.4491 1.101149,0.73774 1.198162,0.64142 0.09701,-0.0963 -0.195826,-0.4769 -0.650756,-0.84572 z M 59.36348,154.89945 c 0,-3.68634 6.040927,-8.74123 10.988945,-9.19526 l 2.460627,-0.22579 -1.269808,-1.2284 c -3.072248,-2.97208 -9.949219,0.74521 -11.738262,6.34501 -0.90119,2.82078 -1.310774,5.43316 -0.8026,5.11909 0.198604,-0.12274 0.361098,-0.48934 0.361098,-0.81465 z m 34.405167,-1.76819 c -0.108615,-0.10862 -0.393274,-2.3e-4 -0.632575,0.24087 -0.345817,0.34841 -0.305295,0.38893 0.197483,0.19748 0.347916,-0.13248 0.543708,-0.32974 0.435092,-0.43835 z m -17.502031,-2.53758 c -0.01279,-0.34892 -0.122668,-0.28883 -0.322581,0.17639 -0.416744,0.96982 -0.416744,1.52681 0,0.88194 0.188086,-0.29104 0.333247,-0.76729 0.322581,-1.05833 z m 1.896023,-2.19426 c 0.347107,-0.34538 0.971673,-0.62796 1.387925,-0.62796 1.126367,0 3.801804,-1.39747 3.801804,-1.9858 0,-2.98058 -3.787841,-5.801 -8.113889,-6.04159 -4.035645,-0.22444 -4.6315,0.39826 -2.324354,2.42909 1.929751,1.69864 3.382688,4.50491 3.382688,6.5335 0,1.36424 0.222881,1.32754 1.865826,-0.30724 z m 8.608718,-1.20608 c 0.101352,-0.26412 0.343025,-0.48022 0.537053,-0.48022 0.194028,0 0.267403,0.22249 0.163057,0.49441 -0.188589,0.49145 0.935868,1.03581 1.328529,0.64315 0.909042,-0.90904 -0.640879,-4.70617 -2.16584,-5.30606 -1.838256,-0.72313 -3.774605,-0.93087 -3.535959,-0.37935 1.416455,3.27351 2.002716,4.82211 2.009687,5.30858 0.01009,0.70398 1.373943,0.47399 1.663473,-0.28051 z m 7.311225,-2.80144 c -0.770961,-2.01873 -2.392762,-3.46769 -3.323694,-2.96947 -0.360936,0.19317 -1.055229,0.5029 -1.542873,0.68831 -0.866765,0.32954 -0.874129,0.36214 -0.328762,1.45535 0.306825,0.61505 0.762178,1.85255 1.011897,2.75001 l 0.454033,1.63175 -0.107146,-2.05561 c -0.114115,-2.1893 -0.0251,-2.31415 1.747369,-2.45089 1.159038,-0.0894 1.927852,0.95264 1.937095,2.62556 0.0029,0.51771 0.124263,1.23208 0.269784,1.5875 0.58649,1.43243 0.472901,-1.71603 -0.117703,-3.26251 z m 6.390928,2.58581 c -0.627164,-2.34253 -1.034805,-3.43959 -1.278072,-3.43959 -0.149477,0 -0.322505,-0.34914 -0.384506,-0.77588 -0.128481,-0.8843 -2.174784,-2.23074 -2.801538,-1.84339 -0.257157,0.15893 0.03114,0.40408 0.757559,0.64417 0.644984,0.21318 1.244905,0.60814 1.333157,0.87768 0.08833,0.26978 -7.31e-4,0.39046 -0.198115,0.26847 -0.197214,-0.12189 -0.540879,-0.002 -0.763698,0.26654 -0.309387,0.37279 -0.297991,0.48379 0.04822,0.46971 1.372433,-0.0558 1.688071,0.13031 1.688071,0.99547 0,0.61981 0.138216,0.82473 0.440972,0.6538 0.348942,-0.197 0.350681,-0.15155 0.0083,0.21779 -0.357847,0.38606 -0.5408,0.3738 -1.058333,-0.071 -0.344134,-0.29575 -0.863822,-0.65302 -1.154864,-0.79393 -0.321733,-0.15578 -0.287161,-0.0579 0.08819,0.24981 0.339548,0.27832 0.623146,0.64728 0.630217,0.81991 0.01175,0.28683 2.38003,2.25417 2.71356,2.25417 0.0789,0 0.0477,-0.35719 -0.0692,-0.79375 z m 19.56775,-1.59747 c 0.40974,-0.12418 0.42379,-0.19949 0.0623,-0.33372 -0.25678,-0.0953 -1.18756,0.10188 -2.06839,0.43827 -1.34132,0.51226 -1.65146,0.53277 -1.90897,0.12623 -0.34751,-0.54864 -0.41692,-0.27104 -0.12344,0.49374 0.16866,0.43952 0.4173,0.43573 1.85208,-0.0282 0.9115,-0.29475 1.89539,-0.60808 2.18644,-0.69628 z m -1.23473,-1.93514 c 0,-1.50461 0.25211,-1.669 0.80416,-0.52434 0.21055,0.43657 0.39356,0.57628 0.40669,0.31048 0.035,-0.70892 -4.98982,-8.15978 -5.50293,-8.15978 -0.34005,0 -0.32947,0.35619 0.0478,1.60986 0.2977,0.98919 0.40818,2.34929 0.28655,3.52777 -0.11724,1.13591 -0.0589,1.91792 0.14308,1.91792 0.18757,0 0.2691,-0.49012 0.18118,-1.08915 -0.15179,-1.03422 -0.12202,-1.06552 0.59027,-0.6207 0.41257,0.25766 0.75012,0.75911 0.75012,1.11436 0,0.35524 0.23812,0.88402 0.52917,1.17506 0.62582,0.62582 0.68863,1.18432 0.13319,1.18432 -0.26869,0 -0.25077,0.17496 0.0558,0.5443 0.79452,0.95733 1.57494,0.46671 1.57494,-0.9901 z m 7.05556,0.093 c -0.31777,-1.44679 -0.60277,-1.16178 -0.30868,0.30869 0.12396,0.61981 0.29892,1.05339 0.3888,0.96351 0.0899,-0.0899 0.0538,-0.66236 -0.0801,-1.2722 z m 3.10675,0.32046 c -1.88166,-3.2202 -9.50506,-8.08157 -12.67317,-8.08157 -0.059,0 0.93008,1.38907 2.19807,3.08681 1.30235,1.74376 2.52182,3.04227 2.80278,2.98444 0.34428,-0.0709 0.42465,0.092 0.26113,0.52917 -0.13348,0.35685 0.30377,0.0945 1.00531,-0.60319 0.68284,-0.6791 1.17918,-1.35379 1.10298,-1.49931 -0.0762,-0.14552 0.0466,-0.26458 0.2728,-0.26458 0.22623,0 0.31801,0.2432 0.20394,0.54046 -0.25487,0.66418 1.51791,1.48208 1.89387,0.87377 0.33222,-0.53754 1.96715,1.70544 1.83184,2.5131 -0.0607,0.36233 0.0753,0.65878 0.30232,0.65878 0.23664,0 0.32448,-0.26337 0.20591,-0.61736 -0.1349,-0.40274 -0.0104,-0.34142 0.35806,0.17639 0.82489,1.15915 0.97429,0.96971 0.23416,-0.29691 z M 94.641257,142.677 c 0,-0.0856 -0.15875,-0.25368 -0.352778,-0.3736 -0.194028,-0.11991 -0.352778,-0.0499 -0.352778,0.15557 0,0.20548 0.15875,0.3736 0.352778,0.3736 0.194028,0 0.352778,-0.07 0.352778,-0.15557 z m 18.560293,-1.17275 c 1.60218,-1.05868 0.19631,-6.40506 -2.25064,-8.55895 l -1.66851,-1.46868 -0.26144,1.53142 c -0.14379,0.84229 -0.5149,2.16491 -0.82469,2.93916 -0.56013,1.3999 -0.55797,1.4117 0.38781,2.11808 0.5231,0.39069 1.60839,1.37617 2.41177,2.18995 1.58752,1.60808 1.62779,1.63089 2.2057,1.24902 z m -18.207515,-0.6497 c 0,-0.0763 -0.238125,-0.13865 -0.529167,-0.13865 -0.291042,0 -0.529167,0.15377 -0.529167,0.34171 0,0.18794 0.238125,0.25033 0.529167,0.13864 0.291042,-0.11168 0.529167,-0.26545 0.529167,-0.3417 z m 12.840325,-8.4729 c 0.009,-1.44782 -0.18638,-2.06647 -0.97953,-3.10635 -1.40428,-1.84111 -2.17718,-1.58819 -2.09897,0.68684 0.0332,0.96686 -0.0464,1.48536 -0.17692,1.15222 -0.181,-0.46189 -0.39491,-0.22476 -0.90095,0.99873 l -0.66361,1.60444 1.72247,1.7541 1.72246,1.75409 0.6821,-1.5181 c 0.37955,-0.84475 0.68691,-2.31998 0.69295,-3.32597 z m -5.76881,0.3136 c 2.96083,-5.77273 0.56079,-11.93427 -5.250271,-13.47886 -2.204957,-0.58608 -6.363113,-0.84805 -5.525411,-0.3481 3.043611,1.81644 4.338062,4.18549 4.43476,8.11631 0.07387,3.00293 1.68632,6.49125 2.438189,5.2747 0.272874,-0.44152 0.791315,0.0599 1.175105,1.13646 0.121044,0.33955 0.480172,0.61737 0.798058,0.61737 0.36883,0 0.5045,0.19149 0.37493,0.52916 -0.571065,1.48816 0.49153,0.22572 1.55464,-1.84704 z m 18.50487,0.741 c 0.68539,-0.53858 0.68035,-0.54721 -0.17639,-0.30191 -1.07653,0.30825 -1.76657,0.88349 -1.04069,0.86757 0.28134,-0.006 0.82903,-0.26072 1.21708,-0.56566 z m 2.69353,-0.99682 c 0.65286,-0.28344 1.00682,-0.52157 0.78656,-0.52916 -0.22026,-0.008 -0.93463,0.2181 -1.5875,0.50155 -0.65287,0.28344 -1.00682,0.52157 -0.78656,0.52916 0.22026,0.008 0.93463,-0.2181 1.5875,-0.50155 z m 4.27383,-0.42383 c -0.24253,-0.0979 -0.63941,-0.0979 -0.88194,0 -0.24254,0.0979 -0.0441,0.17793 0.44097,0.17793 0.48507,0 0.68351,-0.0801 0.44097,-0.17793 z m -1.76388,-0.35278 c -0.24254,-0.0979 -0.63941,-0.0979 -0.88195,0 -0.24253,0.0979 -0.0441,0.17794 0.44097,0.17794 0.48507,0 0.68351,-0.0801 0.44098,-0.17794 z m -44.392676,-5.64601 c 2.616383,-1.71508 5.948343,-2.33385 9.613139,-1.78522 2.150153,0.32188 2.301092,-0.44322 0.402588,-2.0407 -3.127277,-2.63143 -9.997562,-0.0432 -12.148944,4.57685 -1.099534,2.36123 -1.059708,3.14778 0.07108,1.40385 0.498085,-0.76817 1.426046,-1.73782 2.062135,-2.15478 z"
         id="path26" /><path
         style="fill:#d27300"
         d="m 89.397832,184.47965 c -9.949653,-3.68331 -13.234297,-17.94693 -5.708644,-24.78987 2.193694,-1.99469 2.807444,-2.88898 2.825679,-4.11729 0.01162,-0.78258 -0.105955,-0.73122 -1.665393,0.72745 -4.714368,4.40974 -10.555817,4.91304 -15.335902,1.32136 -4.399663,-3.30585 -8.030193,3.1928 -5.022463,8.9902 0.738502,1.42346 0.447399,1.5014 -1.451486,0.38857 -15.583312,-9.13242 -1.803751,-32.89374 16.608579,-28.63963 7.628571,1.76255 12.628487,2.06371 9.884906,0.59539 -0.488991,-0.2617 -0.889073,-0.62307 -0.889073,-0.80304 0,-0.17998 -0.65055,-1.06597 -1.445666,-1.96886 -0.795115,-0.9029 -1.946053,-2.55257 -2.557638,-3.66592 -0.611586,-1.11336 -1.213702,-2.02617 -1.338037,-2.02848 -0.979965,-0.0181 -3.76064,2.54799 -4.560429,4.20858 l -0.905937,1.88097 -0.849948,-1.90034 c -2.70648,-6.05123 2.423607,-15.48228 8.421698,-15.48228 0.36743,0 1.28552,-0.43238 2.0402,-0.96084 1.614762,-1.13073 6.34395,-1.52858 9.754303,-0.82059 3.929049,0.81566 5.533399,2.20662 10.302899,8.93253 3.4697,4.89295 6.53302,6.25942 10.84368,4.83711 12.50901,-4.12738 19.82567,0.0322 24.21182,13.76457 3.44832,10.79617 3.45666,10.86235 1.19335,9.46355 l -1.24104,-0.76701 0.24398,1.03159 c 0.79638,3.3673 0.65562,6.14687 -0.31129,6.14687 -0.88002,0 -4.43404,-1.71278 -6.22729,-3.00111 -1.94341,-1.39619 -2.23219,-1.49577 -1.75568,-0.60541 0.30063,0.56174 0.80877,3.47374 1.35592,7.77042 l 0.19332,1.51807 -1.01814,-0.24433 c -1.44771,-0.34743 -5.25221,-2.08953 -6.49352,-2.97342 -0.9204,-0.65539 -1.051,-0.67495 -1.051,-0.15743 0,2.64329 -4.25178,8.07317 -7.61993,9.73131 -2.48986,1.22575 -9.66618,2.01339 -9.66618,1.06092 0,-0.21947 0.13017,-0.39902 0.28928,-0.39902 3.10864,0 6.78347,-7.77887 4.38893,-9.29048 -0.7698,-0.48595 -2.17701,-1.71258 -3.12712,-2.72583 -0.95011,-1.01326 -2.07745,-2.21661 -2.50519,-2.6741 -0.94595,-1.01175 -2.02793,-1.05439 -3.52911,-0.13907 -0.6225,0.37955 -1.97187,0.93698 -2.99861,1.23872 -2.973995,0.874 -2.94617,0.83391 -2.44951,3.52938 1.04101,5.64974 -2.110306,10.30849 -6.491988,9.59744 -4.499406,-0.73015 1.314164,8.5738 6.150898,9.84381 l 1.62936,0.42783 -1.763885,0.80904 c -2.520012,1.15584 -7.694326,1.32501 -10.358703,0.33867 z m -2.289616,-5.39916 c -1.251602,-2.18201 -2.070904,-5.92382 -1.936081,-8.84224 0.123089,-2.6644 -0.208085,-3.20185 -1.258053,-2.04165 -1.921431,2.12316 -0.454648,7.63466 3.084315,11.58944 1.044891,1.16766 1.074646,0.97649 0.109819,-0.70555 z m 9.30856,-9.6132 c 0.478723,-0.65264 0.471236,-0.66924 -0.09982,-0.22139 -0.339548,0.2663 -0.617361,0.64994 -0.617361,0.85255 0,0.20261 0.04492,0.30223 0.09982,0.22139 0.0549,-0.0808 0.332716,-0.46449 0.617361,-0.85255 z m -3.722721,-2.57326 c -2.271682,-2.15322 -2.665968,-3.44651 -1.11791,-3.66685 1.484906,-0.21135 0.74976,-1.04702 -1.98019,-2.25095 -2.401742,-1.05919 -2.857331,-1.15739 -3.5774,-0.77108 -1.155627,0.61999 -3.336262,3.32916 -3.579963,4.44766 -0.111918,0.51366 -0.26462,1.13236 -0.339339,1.3749 -0.1903,0.61771 0.120462,0.55064 1.130713,-0.24402 2.694678,-2.11964 6.160091,-1.54248 9.461247,1.57576 0.919203,0.86827 1.773688,1.57164 1.898856,1.56305 0.125167,-0.009 -0.728039,-0.9214 -1.896014,-2.02847 z m 4.945149,0.28323 c 1.095439,-4.9875 -5.774644,-12.03506 -8.884238,-9.11375 -1.167891,1.09717 -1.06782,1.26636 1.405409,2.37602 1.256513,0.56376 2.486262,1.40037 2.830354,1.92552 0.334653,0.51075 0.816883,0.92863 1.071622,0.92863 1.021211,0 3.1182,2.88511 2.976872,4.09569 -0.163122,1.39725 0.280989,1.24025 0.599981,-0.21211 z m 23.882606,-1.85511 c 1.56127,-2.96556 1.04506,-8.73125 -0.78172,-8.73125 -1.23742,0 -1.30828,0.40322 -0.44823,2.5505 0.63375,1.58228 0.82053,5.06327 0.36004,6.70992 -0.39387,1.40839 -0.0353,1.19029 0.86991,-0.52917 z m -6.41944,-6.0533 c 0,-5.59298 9.11629,-6.51196 11.34012,-1.14315 l 0.45123,1.08938 0.24277,-0.87112 c 0.73916,-2.65229 -0.52041,-7.21094 -2.61192,-9.45311 -5.51605,-5.91341 -15.26232,2.09651 -11.53863,9.48297 1.4018,2.78069 2.11643,3.08289 2.11643,0.89503 z m 9.34861,-7.99354 c -0.58208,-0.37286 -1.48553,-0.67875 -2.00765,-0.67977 -0.52213,-0.001 -1.04596,-0.15822 -1.16407,-0.34933 -0.13404,-0.21687 0.22275,-0.26519 0.94932,-0.12856 1.70172,0.32001 3.45712,1.08996 3.45712,1.51636 0,0.45215 0.057,0.46872 -1.23472,-0.3587 z m -26.322868,6.76022 c -0.03325,-0.45724 -0.07116,-0.447 -0.202256,0.0547 -0.426966,1.63383 -1.592211,0.47625 -1.864337,-1.85209 l -0.18554,-1.5875 -1.499305,0.0744 c -1.609601,0.0799 -2.003383,-0.4365 -0.705556,-0.92529 0.527322,-0.1986 1.130388,-0.12684 1.796673,0.21377 0.551607,0.28199 1.082886,0.43275 1.180619,0.33501 0.09773,-0.0977 -0.432957,-0.46912 -1.179312,-0.8253 -2.043303,-0.97513 -5.061174,0.31308 -5.061174,2.16042 0,0.0648 0.704948,0.29541 1.566553,0.51237 1.068996,0.26918 2.086939,0.90748 3.204984,2.0097 1.69138,1.66743 3.076484,1.58747 2.948651,-0.17022 z m 5.303188,-1.31168 c 0.27116,-0.24526 -2.2486,-0.0956 -3.674765,0.21826 -1.084463,0.23865 -0.839476,0.26472 1.058335,0.11261 1.35819,-0.10885 2.53559,-0.25775 2.61643,-0.33087 z m -22.950057,-1.10673 c 2.01817,-1.62502 2.868367,-3.41188 2.809815,-5.90538 l -0.0497,-2.11667 -0.215654,2.29305 c -0.484775,5.15463 -4.719213,7.78877 -9.386052,5.83884 -1.208538,-0.50496 -1.660832,-1.25272 -0.757725,-1.25272 0.851784,0 3.414889,-2.48414 3.414889,-3.30968 0,-1.69858 3.437389,-3.80742 6.228213,-3.821 2.667186,-0.013 -0.03794,-5.20722 -3.567964,-6.85101 -4.727338,-2.20134 -8.617312,-0.84084 -5.76144,2.01504 1.936041,1.93604 3.110271,4.32624 3.093443,6.29685 -0.01816,2.12642 -2.346382,5.52172 -3.567403,5.20241 -0.954866,-0.2497 -1.580791,0.30995 -1.055093,0.94338 1.838384,2.21511 6.457824,2.56461 8.814674,0.66689 z m 23.170517,-1.18399 c -1.02922,-1.55526 -3.42458,-3.95956 -4.600781,-4.61795 -0.388056,-0.21722 0.19659,0.43089 1.299211,1.44023 1.10262,1.00935 2.44737,2.53478 2.98832,3.38984 0.54095,0.85507 1.0511,1.48711 1.13366,1.40455 0.0826,-0.0826 -0.28662,-0.81006 -0.82041,-1.61667 z m -44.28828,0.46632 c 0,-3.68634 6.040927,-8.74123 10.988945,-9.19526 l 2.460627,-0.22579 -1.269808,-1.2284 c -3.072248,-2.97208 -9.949219,0.74521 -11.738262,6.34501 -0.90119,2.82078 -1.310774,5.43316 -0.8026,5.11909 0.198604,-0.12274 0.361098,-0.48934 0.361098,-0.81465 z m 47.27222,-1.73668 c -0.6791,-0.52298 -1.75066,-1.48502 -2.38125,-2.13787 -0.63059,-0.65286 -1.14653,-1.03289 -1.14653,-0.84451 0,0.46906 3.83709,3.94202 4.34996,3.93716 0.2269,-0.002 -0.14308,-0.43181 -0.82218,-0.95478 z m 3.175,-1.12701 c 0,-0.177 -0.99219,-1.03373 -2.20486,-1.90386 -1.21267,-0.87012 -3.59855,-3.03768 -5.30194,-4.8168 -3.069805,-3.20628 -7.022221,-5.7422 -8.003974,-5.13544 -0.543149,0.33569 -0.439884,2.50373 0.142266,2.98687 0.27857,0.23119 0.62298,0.92532 0.765356,1.5425 0.245879,1.06585 0.269525,1.07965 0.471333,0.27503 l 0.212468,-0.84713 1.050648,1.0238 c 0.577857,0.56309 1.67054,1.48706 2.428186,2.05327 l 1.377537,1.02946 -0.2411,-1.50775 c -0.13261,-0.82927 -0.48639,-1.9821 -0.786189,-2.56185 -0.975686,-1.88676 -0.272632,-1.43222 2.552839,1.65049 1.52621,1.66517 3.58077,3.56838 4.56568,4.22938 0.98492,0.66099 1.99654,1.44976 2.24806,1.75282 0.52112,0.62791 0.72369,0.69207 0.72369,0.22921 z m -23.283332,-1.07745 c -0.685429,-0.16785 -0.90718,-0.47644 -0.995198,-1.38494 -0.07669,-0.79155 0.01373,-1.09049 0.280037,-0.9259 0.216309,0.13368 0.622439,0.0529 0.902511,-0.17955 0.849889,-0.70535 1.68493,-0.1327 1.432723,0.98252 -0.176741,0.78152 -0.146962,0.8489 0.155347,0.35155 1.218916,-2.00534 0.424332,-6.33378 -1.3356,-7.27559 -1.445618,-0.7736 -4.10263,-0.90184 -3.798101,-0.18331 1.373424,3.24055 1.94717,5.34652 1.94717,7.14721 v 2.03952 l 1.146528,-0.17777 c 1.089744,-0.16897 1.102848,-0.18847 0.264583,-0.39374 z m 8.954049,0.14621 c 0.120472,-0.31394 0.06133,-0.45555 -0.138645,-0.33195 -0.191806,0.11854 -0.348737,0.36491 -0.348737,0.54749 0,0.50744 0.252859,0.39562 0.487382,-0.21554 z m -2.863782,-0.0536 c -0.433894,-0.0837 -1.227644,-0.0859 -1.763889,-0.005 -0.536244,0.0811 -0.181239,0.1496 0.7889,0.15225 0.970139,0.003 1.408884,-0.0637 0.974989,-0.14744 z m 2.023622,-3.04136 c 0,-4.34539 -2.092896,-7.51856 -4.230033,-6.4134 -0.564628,0.29198 -1.272604,0.53087 -1.573281,0.53087 -0.674742,0 -0.675071,-0.013 0.0358,1.41199 0.677222,1.35753 1.499028,5.40302 1.317746,6.48686 -0.08558,0.51164 0.0052,0.44104 0.290471,-0.22593 0.228221,-0.53358 0.682365,-0.97014 1.009207,-0.97014 0.326842,0 0.791885,-0.23812 1.033428,-0.52917 0.573739,-0.69131 1.411111,-0.67895 1.411111,0.0208 0,0.3259 -0.165948,0.44743 -0.407285,0.29828 -0.254366,-0.15721 -0.311441,-0.0966 -0.152012,0.16132 0.1404,0.22717 0.42806,0.30625 0.639244,0.17573 0.378237,-0.23376 0.322162,0.18107 -0.245111,1.8133 -0.24175,0.69559 -0.237335,0.69589 0.312754,0.0208 0.369358,-0.45331 0.557966,-1.39347 0.557966,-2.7813 z m 7.761113,2.45095 c 0,-0.0733 -0.27781,-0.35107 -0.61736,-0.61736 -0.55953,-0.43881 -0.57201,-0.42634 -0.1332,0.13319 0.46086,0.58764 0.75056,0.77452 0.75056,0.48417 z m -6.2657,-1.09086 c 0.0916,-0.47919 0.03074,-0.78732 -0.135263,-0.68473 -0.292299,0.18065 -0.439516,1.556 -0.166554,1.556 0.0744,0 0.210212,-0.39207 0.301817,-0.87127 z m 34.40463,-0.27526 c 0.41835,-4.96725 -4.33665,-9.88417 -12.23362,-12.65019 -2.41086,-0.84444 -2.39856,-0.91507 -0.31386,1.80228 2.37009,3.08936 3.29948,4.57542 3.58522,5.73264 0.13175,0.53357 0.45324,0.97014 0.71442,0.97014 0.26118,0 0.89315,0.32902 1.40439,0.73116 0.51123,0.40213 0.92952,0.58588 0.92952,0.40833 0,-0.17756 -0.55063,-0.61937 -1.22362,-0.98179 -0.81387,-0.4383 -1.08042,-0.74746 -0.79602,-0.92323 0.23518,-0.14534 0.38687,-0.70725 0.33709,-1.24867 -0.1449,-1.57621 0.41923,-2.16122 1.30823,-1.35668 0.3999,0.3619 0.7271,0.9509 0.7271,1.30889 0,0.35798 0.17939,0.65087 0.39865,0.65087 0.26122,0 0.33956,0.5243 0.22725,1.52073 -0.16463,1.46059 -0.11761,1.55169 1.18884,2.30359 1.70716,0.98252 1.79588,0.7358 0.11007,-0.30609 -1.20818,-0.7467 -1.23159,-0.80102 -0.6969,-1.61707 0.50051,-0.76387 0.50112,-0.94527 0.006,-1.90195 -0.30078,-0.58164 -0.47641,-1.05754 -0.39028,-1.05754 0.69319,0 1.37983,0.63201 1.81302,1.66877 0.33002,0.78986 0.68854,1.16348 1.00128,1.04347 0.55972,-0.21479 1.11926,0.83176 1.48389,2.77539 0.20102,1.07152 0.15576,1.26211 -0.2427,1.02204 -0.41616,-0.25074 -0.41701,-0.20536 -0.006,0.30178 0.60637,0.74754 0.58724,0.75319 0.66726,-0.19687 z m -17.5106,-0.49764 c 0.44027,-0.53273 0.41605,-0.54343 -0.26717,-0.11802 -1.04951,0.65349 -3.34377,-0.72556 -6.99596,-4.20516 -2.47207,-2.35525 -2.59094,-2.43229 -0.99252,-0.64328 3.84618,4.30478 7.15662,6.29628 8.25565,4.96646 z m 7.29689,-4.13737 c 0.13239,-1.06732 -0.10548,-1.53439 -3.02938,-5.94832 -2.50614,-3.78328 -3.39388,-4.39514 -2.84729,-1.96244 0.18254,0.81243 0.29579,2.28086 0.25167,3.26319 -0.0446,0.99179 0.18922,2.55394 0.52569,3.51278 0.33326,0.9497 0.53985,2.14594 0.4591,2.65832 l -0.14682,0.9316 2.33854,-0.78439 c 1.9776,-0.66333 2.35551,-0.9212 2.44849,-1.67074 z m -6.33766,-3.92629 c 0.11042,-2.91938 -0.86947,-5.4259 -2.88982,-7.39204 l -1.80241,-1.75404 -0.25308,1.48251 c -0.1392,0.81537 -0.58692,2.23719 -0.99494,3.15958 -0.46738,1.05659 -0.60248,1.72353 -0.36515,1.80264 0.66411,0.22137 4.59562,3.63809 4.59562,3.99387 0,0.18868 0.14778,0.25173 0.3284,0.1401 0.18062,-0.11163 0.42971,-0.039 0.55354,0.16132 0.42457,0.68698 0.76646,0.0287 0.82784,-1.59394 z M 103.831,139.11934 c 1.5036,-0.77754 1.27941,-0.87124 -0.52881,-0.22101 -1.51213,0.54376 -1.63081,0.5347 -3.24047,-0.24733 l -1.670847,-0.81176 1.529108,-0.68461 c 0.841009,-0.37653 1.443119,-0.77059 1.338029,-0.87568 -0.1051,-0.1051 -0.80107,0.13585 -1.546612,0.53543 -0.745539,0.39959 -1.675377,0.72702 -2.066306,0.72762 -0.957243,0.001 3.302128,2.05413 4.333818,2.08852 0.4462,0.0149 1.27964,-0.21515 1.85209,-0.51118 z m 3.70195,-4.21524 c 0.87383,-2.28811 0.46275,-4.54042 -1.11705,-6.12022 -1.42304,-1.42304 -1.44923,-1.40971 -2.06088,1.04896 -0.25822,1.03798 -0.67774,2.39914 -0.93226,3.0248 -0.45366,1.11519 -0.433,1.16305 1.05006,2.43249 1.13947,0.97535 1.46695,1.47816 1.32696,2.03743 -0.32622,1.30331 1.03888,-0.6055 1.73317,-2.42346 z m -10.068648,1.31389 c 4.53e-4,-0.14552 -1.327224,-0.21385 -2.950394,-0.15184 -2.694871,0.10295 -3.036924,0.039 -3.93791,-0.73597 -1.203379,-1.0351 -0.917453,-1.66983 0.752209,-1.66983 1.163487,0 3.553875,-0.9351 3.226711,-1.26227 -0.08355,-0.0836 -0.681953,0.11252 -1.329788,0.4357 -0.958012,0.47792 -1.495512,0.52254 -2.879488,0.23904 -2.144553,-0.43931 -2.30838,0.2467 -0.513425,2.14991 l 1.188183,1.25984 h 3.22154 c 1.771846,0 3.22191,-0.11906 3.222362,-0.26458 z m 4.547728,-3.29953 c 3.91143,-7.28614 0.0483,-13.44145 -8.958273,-14.2737 -2.428658,-0.22442 -2.454878,-0.21794 -1.5875,0.39225 3.26588,2.29749 4.233333,4.21572 4.233333,8.39368 v 2.88406 l 2.275366,2.37835 c 2.759854,2.88477 2.613784,2.87662 4.037074,0.22536 z m 18.55839,0.51779 c 0.68539,-0.53858 0.68035,-0.54721 -0.17639,-0.30191 -1.07653,0.30825 -1.76657,0.88349 -1.04069,0.86757 0.28134,-0.006 0.82903,-0.26072 1.21708,-0.56566 z m 2.69353,-0.99682 c 0.65286,-0.28344 1.00682,-0.52157 0.78656,-0.52916 -0.22026,-0.008 -0.93463,0.2181 -1.5875,0.50155 -0.65287,0.28344 -1.00682,0.52157 -0.78656,0.52916 0.22026,0.008 0.93463,-0.2181 1.5875,-0.50155 z m 4.71481,-0.19019 c -0.11992,-0.19403 -0.56585,-0.33696 -0.99096,-0.31762 -0.71953,0.0327 -0.71199,0.0547 0.10901,0.31762 0.48507,0.15534 0.931,0.29827 0.99096,0.31761 0.06,0.0193 0.0109,-0.12359 -0.10901,-0.31761 z m -2.20486,-0.58642 c -0.24254,-0.0979 -0.63941,-0.0979 -0.88195,0 -0.24253,0.0979 -0.0441,0.17794 0.44097,0.17794 0.48507,0 0.68351,-0.0801 0.44098,-0.17794 z m -44.392676,-5.64601 c 2.616383,-1.71508 5.948343,-2.33385 9.613139,-1.78522 2.150153,0.32188 2.301092,-0.44322 0.402588,-2.0407 -3.127277,-2.63143 -9.997562,-0.0432 -12.148944,4.57685 -1.099534,2.36123 -1.059708,3.14778 0.07108,1.40385 0.498085,-0.76817 1.426046,-1.73782 2.062135,-2.15478 z"
         id="path25" /><path
         style="fill:#a15b13"
         d="m 89.397832,184.47965 c -9.949653,-3.68331 -13.234297,-17.94693 -5.708644,-24.78987 2.193694,-1.99469 2.807444,-2.88898 2.825679,-4.11729 0.01162,-0.78258 -0.105955,-0.73122 -1.665393,0.72745 -4.714368,4.40974 -10.555817,4.91304 -15.335902,1.32136 -4.399663,-3.30585 -8.030193,3.1928 -5.022463,8.9902 0.738502,1.42346 0.447399,1.5014 -1.451486,0.38857 -15.583312,-9.13242 -1.803751,-32.89374 16.608579,-28.63963 7.628571,1.76255 12.628487,2.06371 9.884906,0.59539 -0.488991,-0.2617 -0.889073,-0.62307 -0.889073,-0.80304 0,-0.17998 -0.65055,-1.06597 -1.445666,-1.96886 -0.795115,-0.9029 -1.946053,-2.55257 -2.557638,-3.66592 -0.611586,-1.11336 -1.213702,-2.02617 -1.338037,-2.02848 -0.979965,-0.0181 -3.76064,2.54799 -4.560429,4.20858 l -0.905937,1.88097 -0.849948,-1.90034 c -2.70648,-6.05123 2.423607,-15.48228 8.421698,-15.48228 0.36743,0 1.28552,-0.43238 2.0402,-0.96084 1.614762,-1.13073 6.34395,-1.52858 9.754303,-0.82059 3.929049,0.81566 5.533399,2.20662 10.302899,8.93253 3.4697,4.89295 6.53302,6.25942 10.84368,4.83711 12.50901,-4.12738 19.82567,0.0322 24.21182,13.76457 3.44832,10.79617 3.45666,10.86235 1.19335,9.46355 l -1.24104,-0.76701 0.24398,1.03159 c 0.79638,3.3673 0.65562,6.14687 -0.31129,6.14687 -0.88002,0 -4.43404,-1.71278 -6.22729,-3.00111 -1.94341,-1.39619 -2.23219,-1.49577 -1.75568,-0.60541 0.30063,0.56174 0.80877,3.47374 1.35592,7.77042 l 0.19332,1.51807 -1.01814,-0.24433 c -1.44771,-0.34743 -5.25221,-2.08953 -6.49352,-2.97342 -0.9204,-0.65539 -1.051,-0.67495 -1.051,-0.15743 0,2.64329 -4.25178,8.07317 -7.61993,9.73131 -2.48986,1.22575 -9.66618,2.01339 -9.66618,1.06092 0,-0.21947 0.13017,-0.39902 0.28928,-0.39902 3.10864,0 6.78347,-7.77887 4.38893,-9.29048 -0.7698,-0.48595 -2.17701,-1.71258 -3.12712,-2.72583 -0.95011,-1.01326 -2.07745,-2.21661 -2.50519,-2.6741 -0.94595,-1.01175 -2.02793,-1.05439 -3.52911,-0.13907 -0.6225,0.37955 -1.97187,0.93698 -2.99861,1.23872 -2.973995,0.874 -2.94617,0.83391 -2.44951,3.52938 1.04101,5.64974 -2.110306,10.30849 -6.491988,9.59744 -4.499406,-0.73015 1.314164,8.5738 6.150898,9.84381 l 1.62936,0.42783 -1.763885,0.80904 c -2.520012,1.15584 -7.694326,1.32501 -10.358703,0.33867 z m -2.289616,-5.39916 c -1.251602,-2.18201 -2.070904,-5.92382 -1.936081,-8.84224 0.123089,-2.6644 -0.208085,-3.20185 -1.258053,-2.04165 -1.921431,2.12316 -0.454648,7.63466 3.084315,11.58944 1.044891,1.16766 1.074646,0.97649 0.109819,-0.70555 z m 9.811225,-10.26155 c 2.937555,-5.01256 -4.513368,-14.64504 -8.250872,-10.66665 -1.012286,1.07753 -0.776755,1.44586 1.5954,2.49494 2.448426,1.08281 2.49256,1.46096 0.05576,0.47777 -1.018646,-0.41101 -2.264708,-0.91071 -2.769027,-1.11045 -1.403235,-0.55578 -5.256667,3.0505 -5.256667,4.9195 0,0.42426 -0.104796,1.06217 -0.232879,1.41758 -0.190403,0.52835 -0.06563,0.4939 0.684083,-0.18886 2.400697,-2.1863 6.062214,-1.97078 8.926286,0.5254 1.085919,0.94643 2.277722,1.93859 2.648453,2.20479 0.370731,0.2662 0.674057,0.70276 0.674057,0.97014 0,1.0059 1.061275,0.43036 1.925406,-1.04416 z m 24.602369,-3.49679 c 1.56127,-2.96556 1.04506,-8.73125 -0.78172,-8.73125 -1.23742,0 -1.30828,0.40322 -0.44823,2.5505 0.63375,1.58228 0.82053,5.06327 0.36004,6.70992 -0.39387,1.40839 -0.0353,1.19029 0.86991,-0.52917 z m -6.41944,-5.90968 c 0,-6.0068 11.19213,-6.53032 11.29879,-0.52851 0.0124,0.69618 0.0194,0.69645 0.53048,0.0208 2.16508,-2.86249 -1.79457,-11.31415 -5.63859,-12.03529 -6.14651,-1.15309 -10.99541,5.66258 -8.26356,11.61539 1.19228,2.59805 2.07288,2.99212 2.07288,0.92764 z m 9.17222,-8.48683 c 0,-0.20548 0.15875,-0.27549 0.35278,-0.15557 0.19403,0.11991 0.35278,0.28803 0.35278,0.3736 0,0.0856 -0.15875,0.15557 -0.35278,0.15557 -0.19403,0 -0.35278,-0.16812 -0.35278,-0.3736 z m -26.731909,8.39929 c 0.311758,-0.24253 0.621846,-0.75847 0.689084,-1.14653 0.124269,-0.7172 0.136842,-0.72001 5.846295,-1.307 1.53573,-0.15789 -0.90814,-4.03011 -4.095584,-6.48929 -0.980863,-0.75676 -1.79015,-1.48222 -1.798415,-1.61213 -0.02531,-0.39787 2.929039,0.84514 3.854849,1.62188 0.8354,0.70089 0.85064,0.70193 0.3701,0.0254 -0.27565,-0.38805 -0.72868,-0.89736 -1.00675,-1.1318 -0.27806,-0.23443 -0.56105,-1.04223 -0.62887,-1.7951 -0.0678,-0.75287 -0.37973,-1.98259 -0.69315,-2.7327 -0.519357,-1.24301 -0.519872,-1.32237 -0.006,-0.89573 0.31022,0.25746 0.56404,0.71326 0.56404,1.01288 0,0.29962 0.1063,0.43847 0.23622,0.30854 0.35471,-0.3547 1.9506,2.50973 1.79003,3.21288 -0.10131,0.44368 -0.29244,0.27338 -0.70121,-0.6248 l -0.56193,-1.23472 -0.0288,1.12275 c -0.021,0.81847 0.15755,1.18189 0.65873,1.34096 0.37814,0.12002 0.793,0.55057 0.92193,0.95679 0.67745,2.13446 4.72942,4.83659 6.00217,4.00266 1.41577,-0.92765 1.12897,-2.13661 -0.82063,-3.45919 -0.92164,-0.62522 -3.34257,-2.81385 -5.37986,-4.86361 -6.385831,-6.42491 -11.134312,-7.6023 -8.225631,-2.03955 1.18902,2.27396 1.478185,5.22304 0.695748,7.09567 -0.417561,0.99937 -0.442273,1.31157 -0.103813,1.31157 0.244307,0 0.950582,0.49509 1.569499,1.10019 0.618917,0.60511 1.125304,0.91324 1.125304,0.68474 0,-0.24442 0.181538,-0.3018 0.440972,-0.13938 0.242535,0.15185 0.599722,0.28875 0.79375,0.30423 0.194028,0.0155 0.829028,0.1686 1.411111,0.34026 l 1.05833,0.31212 -0.88194,0.25125 c -1.343327,0.3827 -2.538806,0.36644 -2.293057,-0.0312 0.119916,-0.19402 -0.01879,-0.35277 -0.308231,-0.35277 -0.289443,0 -1.260369,-0.37214 -2.157614,-0.82696 -2.038889,-1.03355 -4.427925,-0.49752 -5.30016,1.1892 -0.500474,0.96781 -0.495174,0.97576 0.808893,1.21319 1.636977,0.29804 3.358304,1.43824 4.121345,2.72997 0.637486,1.07918 1.164918,1.22064 2.033025,0.54529 z m -18.088757,-2.90117 c 7.897551,-4.08398 4.435158,-16.72823 -4.58899,-16.75844 -3.71527,-0.0124 -4.013026,0.49855 -1.661014,2.85056 2.988536,2.98854 3.746066,6.16754 2.187753,9.18099 -0.673961,1.3033 -2.14039,2.39239 -2.939795,2.18334 -0.856856,-0.22407 -1.281299,0.47238 -0.708503,1.16256 1.4269,1.71931 5.608145,2.46819 7.710549,1.38099 z M 59.36348,154.89945 c 0,-3.68634 6.040927,-8.74123 10.988945,-9.19526 l 2.460627,-0.22579 -1.269808,-1.2284 c -3.072248,-2.97208 -9.949219,0.74521 -11.738262,6.34501 -0.90119,2.82078 -1.310774,5.43316 -0.8026,5.11909 0.198604,-0.12274 0.361098,-0.48934 0.361098,-0.81465 z m 28.149956,-3.80111 c 2.069859,-0.64313 1.812572,-7.00417 -0.339241,-8.38723 -1.999205,-1.28497 -5.170723,-1.01577 -3.829866,0.32509 0.733044,0.73304 1.771928,4.57982 1.771928,6.5611 v 2.06816 l 0.970139,-0.21258 c 0.533576,-0.11692 1.175744,-0.27646 1.42704,-0.35454 z m 6.734795,-0.52328 c 1.186055,-1.95031 0.315049,-6.64303 -1.57258,-8.4726 l -1.187389,-1.15086 -1.510308,0.65703 c -0.83067,0.36137 -1.551921,0.68068 -1.602781,0.70958 -0.05086,0.0289 0.257291,0.83114 0.68478,1.78276 0.589686,1.31267 0.782268,2.43233 0.798029,4.63969 l 0.02077,2.90948 1.857269,9.4e-4 c 1.693004,8.5e-4 1.915193,-0.0943 2.512205,-1.07602 z m 36.323579,-2.26119 c -0.8989,-5.67297 -4.48696,-9.14563 -12.26413,-11.86969 -2.44889,-0.85776 -2.44908,-0.95706 0.004,2.31879 1.15453,1.54159 2.50384,3.65833 2.99845,4.70387 0.49462,1.04553 0.9888,1.81148 1.09817,1.70211 0.10938,-0.10938 0.63645,0.11272 1.17127,0.49354 l 0.9724,0.69241 0.21363,-0.85119 c 0.1175,-0.46815 0.11742,-1.10193 -1.8e-4,-1.40839 -0.1176,-0.30646 -0.0381,-0.5572 0.1767,-0.5572 0.22739,0 0.39052,0.66014 0.39052,1.58034 0,1.4842 0.0844,1.6234 1.3882,2.28853 l 1.3882,0.70821 -0.17832,-1.3184 c -0.16817,-1.24339 -0.14679,-1.27944 0.37569,-0.63361 0.30471,0.37663 0.55401,0.98254 0.55401,1.34645 0,0.59066 1.72726,3.24824 1.95334,3.00545 0.0501,-0.0538 -0.0589,-1.04434 -0.24223,-2.20122 z m -15.46944,-1.1522 c 0,-0.0756 -0.17576,-0.0288 -0.39057,0.10398 -0.26542,0.16403 -0.31078,-0.01 -0.14156,-0.54319 0.6202,-1.95409 -0.0984,-3.80089 -1.42224,-3.65501 -0.7149,0.0788 -1.22063,-0.0217 -1.22063,-0.24256 0,-0.23498 -0.43561,-0.29535 -1.15601,-0.1602 -0.88225,0.16551 -1.39172,0.0315 -2.15135,-0.56607 -0.73684,-0.5796 -1.06477,-0.67062 -1.26262,-0.35048 -0.19463,0.3149 -0.54479,0.18847 -1.28823,-0.46513 -0.56153,-0.49367 -0.82252,-0.90261 -0.57999,-0.90874 0.24254,-0.006 0.44098,0.17406 0.44098,0.40043 0,0.22636 0.0831,0.32846 0.18469,0.22688 0.46146,-0.46146 -0.26935,-1.36014 -0.76891,-0.94554 -0.27601,0.22906 -1.20993,0.43155 -2.07538,0.44997 -0.86546,0.0184 -1.5736,0.0586 -1.57365,0.0893 -8.9e-4,0.56188 6.49251,6.63386 8.13053,7.60288 l 2.20583,1.30491 1.53455,-1.10203 c 0.84401,-0.60612 1.53456,-1.16387 1.53456,-1.23944 z m 2.16633,-0.79358 c 0.84581,-0.38379 1.91567,-0.70129 2.37746,-0.70555 1.63859,-0.0151 0.86582,-2.55848 -2.08064,-6.84794 -2.80333,-4.08109 -3.66294,-4.70649 -3.1146,-2.266 0.18254,0.81243 0.29677,2.28086 0.25385,3.26319 -0.0429,0.98233 0.17098,2.59193 0.47534,3.57687 0.30437,0.98495 0.47226,2.21527 0.37309,2.73403 -0.21565,1.12808 -0.22637,1.12655 1.7155,0.2454 z m -3.22467,-5.68609 c 0,-3.20213 -0.92335,-5.57461 -2.9295,-7.52707 l -1.78799,-1.74014 -0.47199,2.07821 c -0.25959,1.14301 -0.7803,2.60076 -1.15713,3.23944 -0.37683,0.63868 -0.54141,1.16124 -0.36572,1.16124 0.17568,0 1.02268,0.59531 1.88222,1.32292 0.85954,0.7276 1.94055,1.64041 2.40224,2.02847 0.83528,0.70206 1.65878,1.16265 2.16329,1.20993 0.14552,0.0136 0.26458,-0.78421 0.26458,-1.773 z m -9.54649,-1.71902 c 3.50457,-1.7879 4.59263,-7.31732 1.99717,-10.14946 -1.34456,-1.46717 -1.80974,-1.34213 -2.06419,0.5549 -0.10104,0.75335 -0.4716,1.97638 -0.82345,2.71786 -0.35185,0.74148 -0.61797,1.6371 -0.59137,1.99027 0.0266,0.35317 -0.11924,0.64213 -0.3241,0.64213 -0.20486,0 -0.90674,0.46909 -1.55973,1.04242 -0.65299,0.57333 -1.851606,1.24147 -2.663598,1.48475 l -1.476349,0.44232 2.087861,0.9836 c 2.474436,1.16572 3.586416,1.22549 5.417756,0.29121 z m -0.17709,-3.27416 -1.03614,-1.14653 1.14653,1.03614 c 1.06872,0.96583 1.30868,1.25692 1.03614,1.25692 -0.0607,0 -0.57665,-0.51594 -1.14653,-1.14653 z m 31.63858,1.94028 c -0.34012,-0.62711 -1.76366,-1.99938 -3.03744,-2.92806 -0.38589,-0.28134 0.16974,0.38261 1.23472,1.47545 2.18661,2.24379 2.26692,2.3085 1.80272,1.45261 z m -37.340694,-1.56454 c 0.57547,-0.2955 0.580049,-0.36693 0.05706,-0.88992 -0.312749,-0.31275 -0.953488,-1.17828 -1.423866,-1.92341 -0.470377,-0.74512 -1.021359,-1.35477 -1.224403,-1.35477 -0.203045,0 -0.27106,-0.15875 -0.151144,-0.35278 0.350579,-0.56725 -0.128189,-0.40954 -1.230267,0.40527 -1.268902,0.93814 -3.32964,1.32273 -4.88823,0.91228 -1.832047,-0.48247 -1.653752,0.93321 0.353575,2.80739 1.174162,1.09628 6.647296,1.35101 8.507279,0.39594 z m 3.690864,-3.63893 c 2.78852,-5.4117 0.17085,-11.70357 -5.495772,-13.20974 -2.301429,-0.61171 -6.351953,-0.82926 -5.52356,-0.29666 3.121678,2.00701 4.409722,4.57704 4.409722,8.79871 v 2.6188 l 2.357359,2.58289 c 2.664281,2.91919 2.482641,2.94029 4.252251,-0.494 z m 19.75318,1.72714 c -0.11723,-0.11723 -0.4215,-0.12976 -0.67616,-0.0279 -0.28142,0.11261 -0.19783,0.1962 0.21314,0.21313 0.37188,0.0153 0.58024,-0.0681 0.46302,-0.18528 z m 4.24068,-0.0301 c -0.33955,-0.0887 -0.89517,-0.0887 -1.23472,0 -0.33955,0.0887 -0.0617,0.16134 0.61736,0.16134 0.6791,0 0.95691,-0.0726 0.61736,-0.16134 z m 5.22424,-0.2972 c -0.37663,-0.28487 -0.85288,-0.51233 -1.05833,-0.50545 -0.20545,0.007 0.0233,0.23938 0.5084,0.51667 1.14273,0.65324 1.42093,0.64757 0.54993,-0.0112 z m -10.97355,-0.1382 c 0.11075,-0.17919 1.00353,-0.59224 1.98395,-0.91789 0.98043,-0.32564 1.70608,-0.6686 1.61255,-0.76212 -0.19828,-0.19828 -4.47843,1.2735 -4.9733,1.71012 -0.19421,0.17136 -0.0175,0.2957 0.42015,0.2957 0.41541,0 0.84591,-0.14662 0.95665,-0.32581 z m 9.17126,-0.69801 c -0.49308,-0.46824 -3.58733,-1.44905 -4.49261,-1.42406 -0.58615,0.0162 2.14681,1.01068 4.66899,1.699 0.0873,0.0238 0.008,-0.0999 -0.17638,-0.27494 z m -48.343786,-6.9725 c 2.616383,-1.71508 5.948343,-2.33385 9.613139,-1.78522 2.150153,0.32188 2.301092,-0.44322 0.402588,-2.0407 -3.127277,-2.63143 -9.997562,-0.0432 -12.148944,4.57685 -1.099534,2.36123 -1.059708,3.14778 0.07108,1.40385 0.498085,-0.76817 1.426046,-1.73782 2.062135,-2.15478 z"
         id="path24" /><path
         style="fill:#56300a"
         d="M 90.231535,184.69149 C 79.38109,181.09538 75.934899,166.82833 84.09515,159.28718 c 2.06064,-1.9043 3.081057,-3.59966 2.510191,-4.17053 -0.166179,-0.16618 -1.001696,0.35464 -1.865192,1.16266 -4.874602,4.56143 -12.023991,4.84372 -16.057164,0.63399 -3.16247,-3.30091 -6.69029,4.23975 -4.40282,9.41096 0.781836,1.76747 0.682795,1.84476 -1.03613,0.80862 -11.382468,-6.8612 -8.539447,-21.54625 5.407503,-27.93138 4.076701,-1.86637 6.39089,-1.98986 11.692158,-0.6239 2.511459,0.64711 7.709778,1.43275 9.48011,1.43275 0.935989,0 0.903632,-0.0646 -1.016424,-2.02847 -1.090754,-1.11566 -2.714694,-3.2191 -3.608756,-4.67431 -0.894061,-1.45521 -1.659838,-2.6966 -1.701726,-2.75864 -0.547146,-0.81041 -4.099601,2.38461 -4.993287,4.49089 l -0.660147,1.55586 -0.838215,-1.90864 c -2.717498,-6.18781 0.980045,-13.27727 7.987258,-15.31432 1.035997,-0.30117 2.479846,-0.95708 3.208551,-1.45758 4.603965,-3.16216 13.43447,-0.0995 17.55123,6.08728 2.38504,3.5843 4.89519,6.09573 7.40709,7.41088 l 1.79662,0.94065 4.199,-1.34557 c 12.75981,-4.08887 20.33094,1.36984 24.47987,17.64975 0.39625,1.55482 0.96479,3.51947 1.26342,4.36588 0.76944,2.18084 0.70055,2.31845 -0.73622,1.47074 -1.62131,-0.9566 -1.67546,-0.88052 -1.15762,1.62664 0.43096,2.0865 0.21501,4.70285 -0.38817,4.70285 -1.01175,0 -4.51,-1.67395 -6.38906,-3.05724 -1.91745,-1.41154 -2.14616,-1.50333 -1.92299,-0.77173 0.6994,2.29273 1.80466,9.04559 1.5261,9.32415 -0.2845,0.2845 -5.55941,-1.83469 -6.98578,-2.80654 l -1.25087,-0.85228 -0.77793,2.16862 c -2.12547,5.92516 -6.49422,8.98077 -13.30088,9.30296 l -3.52778,0.16699 2.3495,-2.15078 c 3.64651,-3.33809 4.79302,-6.41991 2.86149,-7.69171 -0.52944,-0.34861 -2.27039,-1.94352 -3.86878,-3.54425 -3.08774,-3.09225 -3.60799,-3.31157 -5.50487,-2.3206 -0.62095,0.32441 -2.16088,0.94109 -3.42206,1.3704 l -2.29306,0.78058 0.0695,1.54002 c 0.23007,5.09777 0.20389,5.46026 -0.510739,7.07186 -1.085739,2.44852 -3.261586,3.93054 -5.467796,3.72425 l -1.675695,-0.15669 2.79e-4,1.27113 c 8.31e-4,3.79588 4.494929,8.7802 8.011361,8.88526 0.85415,0.0255 0.72783,0.15104 -0.956084,0.95 -2.323608,1.10247 -7.017885,1.43531 -9.348611,0.66285 z m -3.24772,-6.14017 c -1.370792,-2.76974 -2.01495,-6.12294 -1.728121,-8.99583 0.23426,-2.34635 -0.270789,-2.68841 -1.56261,-1.05834 -1.76483,2.22694 1.834575,12.43542 4.384602,12.43542 0.04656,0 -0.445684,-1.07156 -1.093871,-2.38125 z m 10.278299,-10.13956 c 2.479716,-5.22561 -5.545392,-14.29907 -8.894132,-10.056 l -0.805219,1.02026 0.747239,0.39991 c 1.047695,0.56071 0.624635,0.81281 -0.502324,0.29933 -1.304664,-0.59444 -2.24839,-0.0717 -3.98364,2.20648 -1.534482,2.01461 -2.388912,4.71179 -1.368601,4.32026 0.299284,-0.11484 0.544153,-0.33744 0.544153,-0.49466 0,-0.63315 3.177731,-1.49205 4.905855,-1.326 1.843132,0.1771 6.541277,3.6539 7.18342,5.316 0.345219,0.89355 1.30123,0.15207 2.173249,-1.68558 z m -7.559746,-7.58752 c -0.291042,-0.18809 -0.370417,-0.34198 -0.176389,-0.34198 0.194028,0 0.590903,0.15389 0.881945,0.34198 0.291041,0.18808 0.370416,0.34197 0.176388,0.34197 -0.194027,0 -0.590902,-0.15389 -0.881944,-0.34197 z m 32.314512,3.38424 c 1.24873,-3.68063 0.21407,-8.38304 -1.68558,-7.66079 l -0.89048,0.33856 0.86752,2.58635 c 0.85742,2.55626 0.90881,4.21418 0.21688,6.99608 -0.38834,1.56133 0.81238,-0.25805 1.49166,-2.2602 z m -6.91451,-4.48274 c 0,-5.96724 10.0094,-7.15104 11.17527,-1.32169 0.24983,1.24918 0.73204,1.30267 1.03031,0.11427 0.45064,-1.79548 -0.0742,-4.88292 -1.24502,-7.32458 -4.60946,-9.61236 -17.36686,-2.13664 -12.97293,7.60202 1.03171,2.2867 2.01237,2.73989 2.01237,0.92998 z m -17.225697,-0.54368 c 0.354827,-0.32111 0.645139,-0.85396 0.645139,-1.18411 0,-0.504 0.521543,-0.63963 3.252308,-0.84578 1.78877,-0.13503 3.30836,-0.30156 3.37686,-0.37006 0.29268,-0.29268 -2.94476,-4.53686 -4.62315,-6.0608 -1.006296,-0.9137 -1.538833,-1.55432 -1.183415,-1.42361 0.355418,0.1307 0.779805,0.23765 0.943075,0.23765 0.16327,0 0.78529,0.41098 1.38226,0.9133 1.14065,0.9598 1.32571,0.90046 0.72021,-0.23094 -0.2266,-0.4234 -0.23562,-0.68236 -0.0238,-0.68236 0.18778,0 0.43299,0.28851 0.54491,0.64114 0.61875,1.9495 5.66871,5.14069 6.44815,4.07474 1.11127,-1.51974 0.50073,-2.72773 -2.37076,-4.69068 -0.6791,-0.46423 -2.62747,-2.31614 -4.32971,-4.11535 -5.086778,-5.37655 -11.682747,-7.51516 -8.709778,-2.82397 1.68074,2.65212 2.212001,6.0569 1.238748,7.93896 -0.32918,0.63657 -0.547115,1.19405 -0.484301,1.23885 0.06281,0.0448 0.630144,0.43773 1.260734,0.87318 1.638303,1.13132 1.417264,1.6017 -0.333052,0.70875 -1.162494,-0.59306 -1.615087,-0.6702 -2.11188,-0.35995 -0.347764,0.21719 -0.941144,0.39488 -1.31862,0.39488 -0.574947,0 -2.145475,1.63295 -2.145475,2.23075 0,0.0999 0.754062,0.33928 1.675694,0.53204 1.335173,0.27927 1.96245,0.67915 3.086806,1.96784 1.528585,1.75199 2.066234,1.934 3.059027,1.03553 z m -37.23357,-7.19902 c 1.897957,-3.49056 5.995161,-6.06341 9.742002,-6.11751 1.308213,-0.0189 2.379776,-0.0825 2.38125,-0.14139 0.09171,-3.66256 -6.168626,-3.30964 -10.189381,0.57441 -2.729518,2.63672 -4.877334,8.84536 -3.701375,10.69948 0.199323,0.31427 0.377722,-0.1382 0.52761,-1.33818 0.124554,-0.99714 0.682506,-2.65171 1.239894,-3.67681 z m 19.355387,4.25662 c 5.626678,-3.47747 4.773723,-13.49947 -1.36351,-16.02088 -3.44509,-1.41538 -9.215348,-0.23881 -6.550114,1.33558 4.861268,2.87163 5.229202,12.21432 0.481025,12.21432 -1.719752,0 -1.358065,1.24724 0.732311,2.5253 1.507504,0.92169 5.169108,0.892 6.700288,-0.0543 z m 7.160224,-4.81365 c 4.008171,-1.0737 1.887974,-8.94603 -2.556628,-9.49281 l -2.101672,-0.25855 0.586044,0.89441 c 1.018535,1.55448 2.029799,5.10748 2.029799,7.13155 0,2.08474 0.168776,2.22731 2.042457,1.7254 z m 6.986894,-0.51643 c 1.843108,-2.03618 -0.305566,-9.8409 -2.709242,-9.8409 -0.232035,0 -2.465038,0.92622 -3.081374,1.27812 -0.06196,0.0354 0.241485,0.83383 0.674321,1.77435 0.599286,1.3022 0.794424,2.40404 0.81821,4.62001 l 0.03123,2.90997 1.797407,4.4e-4 c 1.379463,3.4e-4 1.953673,-0.17219 2.469444,-0.74199 z m 36.464082,-2.55179 c -0.63639,-4.59162 -3.19158,-7.74684 -8.27668,-10.22028 -5.38814,-2.62085 -7.15451,-2.95709 -5.4313,-1.0339 1.8939,2.1137 3.23103,4.08135 4.24288,6.24361 0.69595,1.48724 1.2225,2.20516 1.53061,2.08693 0.25833,-0.0991 0.5545,-0.043 0.65816,0.12471 0.10366,0.16773 1.37246,0.90592 2.81957,1.64043 1.44711,0.73452 3.07334,1.79708 3.61386,2.36126 1.21239,1.26546 1.18952,1.29808 0.8429,-1.20276 z m -17.41408,0.43446 c 0.85211,-0.94221 2.94711,-2.0252 5.43454,-2.80933 2.87011,-0.90477 2.64494,-1.97846 -1.72424,-8.22195 -1.98635,-2.83845 -3.13337,-3.74611 -2.67585,-2.11744 0.15689,0.55848 0.31576,2.20605 0.35304,3.66126 0.0373,1.45521 0.24875,3.09273 0.46992,3.63894 0.47551,1.17434 0.53389,3.64632 0.0925,3.91909 -0.17026,0.10523 -0.40271,-0.63946 -0.51654,-1.65488 -0.11383,-1.01541 -0.35979,-3.19558 -0.54657,-4.84482 -0.50323,-4.44329 -1.16471,-5.9253 -3.50507,-7.85285 -1.59117,-1.31051 -1.69638,-1.25647 -1.92827,0.99032 -0.3965,3.84171 -2.89597,6.86253 -5.67814,6.86253 h -1.73166 l 3.24398,3.29636 c 4.5546,4.62812 7.56484,6.40158 8.71232,5.13277 z m 25.42883,-6.45501 c -4.93278,-9.78507 -12.60369,-13.2029 -19.73728,-8.7941 -0.82917,0.51246 3.93805,1.45095 5.5855,1.09958 2.49413,-0.53195 9.30618,3.23547 8.21895,4.5455 -0.21424,0.25814 -0.6479,0.46994 -0.96369,0.47067 -0.35884,8.2e-4 -0.17727,0.24879 0.48417,0.66122 0.58208,0.36295 2.72521,2.08459 4.7625,3.82588 4.56696,3.90341 4.54279,3.92991 1.64985,-1.80875 z m -33.39985,3.14116 c -0.24933,-0.30042 -0.53269,-0.46684 -0.62971,-0.36983 -0.097,0.097 0.0276,0.42219 0.27693,0.72261 0.24933,0.30042 0.5327,0.46684 0.62971,0.36983 0.097,-0.097 -0.0276,-0.42219 -0.27693,-0.72261 z m -0.71902,-6.45514 c 2.86818,-1.41011 4.31446,-6.01235 2.84398,-9.04994 -1.16617,-2.409 -2.83052,-3.02288 -2.83052,-1.04402 0,3.56558 -4.27829,8.6074 -7.308407,8.6127 -0.345998,6.1e-4 0.323412,0.46469 1.487578,1.03129 2.424849,1.18018 4.063819,1.30717 5.807369,0.44997 z m 26.11902,0.14289 c 0,-0.0763 -0.24637,-0.23319 -0.54749,-0.34874 -0.31395,-0.12047 -0.45555,-0.0613 -0.33196,0.13864 0.20717,0.33522 0.87945,0.49582 0.87945,0.2101 z m -31.799912,-3.08706 c 0.38033,-0.23752 0.598468,-0.6535 0.490387,-0.93516 -0.157096,-0.40939 -0.05671,-0.43349 0.519964,-0.12486 2.214431,1.18512 4.552971,-6.84452 3.100811,-10.64696 -1.3663,-3.5776 -5.686016,-5.88121 -11.028436,-5.88121 h -1.579218 l 1.715563,1.14653 c 2.524997,1.68748 3.580796,4.02857 3.723348,8.25603 l 0.108882,3.22894 -1.210277,0.828 c -0.998573,0.68317 -1.661946,0.828 -3.792396,0.828 -1.420165,0 -2.582103,0.0969 -2.582084,0.21536 2.9e-5,0.17996 1.585188,2.67384 1.963264,3.08873 0.719675,0.78976 7.304328,0.78715 8.570192,-0.003 z m -0.976351,-2.45081 c -0.439865,-0.59495 -0.723719,-1.15777 -0.630786,-1.2507 0.09293,-0.0929 0.521104,0.32556 0.951494,0.92999 0.430389,0.60443 0.714243,1.16724 0.630786,1.25069 -0.08346,0.0835 -0.511628,-0.33503 -0.951494,-0.92998 z m 27.484593,2.14873 c -0.23074,-0.43114 -0.73865,-0.70555 -1.30593,-0.70555 -1.06623,0 -1.01298,0.10562 0.43347,0.85985 1.32478,0.69079 1.32474,0.6908 0.87246,-0.1543 z m -44.505175,-9.24804 c 2.5213,-2.12154 8.188957,-3.17335 11.111685,-2.06213 1.157827,0.4402 1.218591,0.0295 0.231854,-1.56707 -2.432093,-3.93521 -10.978899,-1.22237 -13.197714,4.18908 -0.777086,1.89523 -0.717655,2.77726 0.09711,1.44118 0.360009,-0.59035 1.150689,-1.49083 1.757068,-2.00106 z"
         id="path23" /><path
         style="fill:#070504"
         d="m 90.382999,184.70722 c -6.802196,-1.93401 -10.846049,-8.4284 -10.697573,-17.18021 0.04627,-2.72751 3.137375,-8.0271 5.032882,-8.62872 0.68957,-0.21886 2.161838,-2.60378 2.161838,-3.50195 0,-0.95444 -0.811029,-0.6418 -2.290021,0.88278 -4.321075,4.45427 -10.741437,4.77981 -15.608724,0.79143 l -1.550783,-1.27075 -1.276715,1.03333 c -3.177822,2.57203 -3.828502,6.66979 -1.626364,10.24229 0.663189,1.07588 -0.114208,0.77966 -2.758376,-1.05106 -13.759487,-9.52654 0.898482,-31.97809 17.949883,-27.49375 2.798158,0.73588 3.937034,0.91618 8.484017,1.34312 2.472957,0.2322 3.572036,-0.19944 1.877392,-0.73729 -0.74833,-0.23752 -3.971654,-4.33871 -5.482295,-6.9754 -1.078301,-1.88208 -1.077324,-1.88165 -2.579313,-1.13236 -1.414764,0.70578 -2.466588,1.81839 -3.440624,3.63946 l -0.786092,1.46969 -0.646825,-1.32693 c -2.90382,-5.95708 0.979497,-13.39967 8.037513,-15.40435 1.103762,-0.3135 2.242744,-0.80591 2.531071,-1.09423 0.9646,-0.9646 2.339307,-1.22467 5.968982,-1.12923 5.993976,0.15762 8.536738,1.69722 12.599268,7.62867 4.75988,6.94962 7.22926,8.10369 13.19641,6.16737 10.99137,-3.56666 18.53179,0.76228 22.52496,12.93152 3.59133,10.94465 3.70762,11.58095 1.89095,10.34649 -1.66512,-1.13148 -1.6819,-1.10875 -1.07386,1.45473 0.46762,1.97151 0.37335,5.11261 -0.15343,5.11219 -0.88423,-7e-4 -4.4914,-1.75066 -6.36626,-3.08847 -2.05129,-1.46372 -2.23864,-1.53443 -2.01842,-0.76173 0.59207,2.07748 1.66193,8.87869 1.43271,9.10792 -0.33984,0.33983 -5.16604,-1.50832 -6.54241,-2.50535 -1.7145,-1.24198 -1.50134,-1.33749 -2.37743,1.06527 -2.24863,6.16707 -7.24165,9.56672 -14.07424,9.58288 -2.58825,0.006 -2.6802,-0.18403 -0.79109,-1.63594 4.43373,-3.40764 5.32296,-6.70189 2.39328,-8.86618 -1.05589,-0.78002 -2.62005,-2.26716 -3.47593,-3.30475 -2.27569,-2.75884 -3.23589,-3.06864 -5.40476,-1.74378 -0.60499,0.36956 -1.95383,0.92269 -2.99743,1.22918 -2.611451,0.76696 -2.850328,1.01797 -2.481183,2.60723 1.335553,5.74988 -1.749199,11.1387 -6.046258,10.56234 l -1.393159,-0.18686 0.0077,1.46573 c 0.01927,3.64577 3.528395,7.79827 7.314959,8.65613 l 1.320351,0.29913 -1.677484,0.77045 c -2.112066,0.97006 -6.776235,1.29269 -9.107165,0.62996 z m -1.738964,-3.52973 c 0,-0.0593 -0.391994,-0.63916 -0.871098,-1.28855 -1.792964,-2.43023 -3.212603,-10.25344 -2.1675,-11.94445 0.535892,-0.86709 -0.633661,-0.76384 -1.57618,0.13915 -2.054072,1.96793 -1.083781,6.65933 2.281954,11.03336 1.37509,1.78703 2.332824,2.63296 2.332824,2.06049 z m 1.475787,-0.67413 c -0.25314,-0.25314 -0.417454,-0.27397 -0.417454,-0.0529 0,0.47088 0.417199,0.88808 0.652639,0.65264 0.100248,-0.10025 -0.0056,-0.37012 -0.235185,-0.59972 z m -7.581315,-10.41199 c -0.08944,-0.34325 -0.168509,-0.14783 -0.175699,0.43425 -0.0072,0.58209 0.06599,0.86292 0.162627,0.62408 0.09663,-0.23884 0.102516,-0.71509 0.01307,-1.05833 z m 14.316981,-0.87108 c 1.883431,-2.90469 1.030049,-6.94162 -2.071836,-9.80084 -2.793498,-2.57495 -5.26988,-2.91103 -6.577346,-0.89264 -0.451119,0.69642 -1.091156,1.23225 -1.474827,1.23473 -1.570093,0.0101 -4.790222,4.41723 -4.790222,6.55597 v 0.92982 l 1.215326,-1.06707 c 1.610165,-1.41375 4.683868,-1.87869 6.380278,-0.96511 1.200144,0.64632 5.426984,4.42853 4.94914,4.42853 -0.156153,0 -0.08629,0.23812 0.155256,0.52917 0.698664,0.84183 1.186919,0.63179 2.214231,-0.95256 z m 26.148302,-4.09799 c 0.69246,-1.22558 1.2269,-2.61628 1.18766,-3.09046 -0.11371,-1.37397 -0.68698,-0.80093 -1.19857,1.19812 -0.25922,1.01289 -0.71188,2.30683 -1.00591,2.87543 -0.50411,0.97484 -0.71104,1.71659 -0.38839,1.39223 0.0804,-0.0808 0.71276,-1.14974 1.40521,-2.37532 z m -1.31317,0.0756 c 1.08714,-2.37461 1.09528,-7.42469 0.0137,-8.50625 -0.79067,-0.79067 -2.58128,-0.0696 -2.17933,0.87755 1.37764,3.24639 1.65648,5.29628 1.1026,8.10569 -0.40498,2.05415 -0.0158,1.87954 1.06301,-0.47699 z m -1.4843,-0.66954 c 0.32848,-1.84934 -0.0282,-1.47514 -0.47059,0.49368 -0.1893,0.84253 -0.21726,1.39362 -0.0621,1.22465 0.15514,-0.16897 0.39486,-0.94222 0.53271,-1.71833 z m 0.0686,-3.0868 c -0.0979,-0.24254 -0.17793,-0.0441 -0.17793,0.44097 0,0.48507 0.0801,0.68351 0.17793,0.44097 0.0979,-0.24253 0.0979,-0.63941 0,-0.88194 z m -0.89541,-0.71144 c -0.34841,-0.34581 -0.38893,-0.30529 -0.19749,0.19748 0.13248,0.34792 0.32974,0.54371 0.43836,0.4351 0.10861,-0.10862 2.2e-4,-0.39328 -0.24087,-0.63258 z m -3.35769,-3.67161 c 2.85597,-3.82527 8.21142,-3.24027 10.01255,1.09371 0.93653,2.25355 1.4022,1.71516 1.40985,-1.63001 0.0119,-5.18615 -3.42314,-9.80913 -7.28847,-9.80913 -5.98995,0 -9.82204,6.06195 -7.33518,11.60343 1.31991,2.94113 2.04153,3.33555 2.2975,1.25574 0.10564,-0.85829 0.51232,-1.98948 0.90375,-2.51374 z m 8.89563,2.15341 c -0.0837,-1.24243 -0.64283,-2.14146 -0.64283,-1.03356 0,0.33441 -0.16506,0.4688 -0.39854,0.32449 -0.24355,-0.15052 -0.33069,-0.0557 -0.22406,0.24377 0.096,0.26954 0.0316,0.76789 -0.14304,1.10744 -0.26234,0.51007 -0.16018,0.61736 0.58789,0.61736 0.8188,0 0.89729,-0.12048 0.82058,-1.2595 z M 98.468247,158.1985 c 0.341262,-0.6933 0.667974,-0.91591 1.156652,-0.78812 0.927261,0.24248 5.599691,-0.47585 5.599691,-0.86089 0,-0.6324 -3.01025,-4.41957 -4.66391,-5.86762 -0.941707,-0.82461 -1.651335,-1.4993 -1.576953,-1.4993 0.406718,0 2.655643,1.26331 3.386933,1.90259 0.82534,0.72147 0.84282,0.72258 0.59667,0.0377 -0.1775,-0.49388 0.14953,-0.31897 1.09003,0.58298 3.02121,2.89737 5.04482,3.73951 5.76268,2.39818 0.79937,-1.49364 0.2904,-2.47169 -2.17557,-4.18068 -1.28845,-0.89292 -3.26238,-2.6552 -4.38653,-3.91616 -2.74682,-3.08113 -2.58715,-2.93703 -4.878493,-4.40278 -3.948479,-2.52581 -6.355595,-1.63786 -4.237309,1.56309 1.41535,2.13874 1.869623,5.53316 0.980892,7.32945 l -0.701974,1.41881 1.168434,0.62925 c 0.642638,0.34608 1.168433,0.75959 1.168433,0.9189 0,0.29029 -1.580863,-0.27457 -2.349842,-0.83963 -0.235643,-0.17315 -0.504132,-0.14794 -0.632257,0.0594 -0.12248,0.19818 -0.82512,0.52254 -1.561423,0.7208 -1.125349,0.30303 -2.159255,1.39439 -2.159255,2.27925 0,0.0648 0.753972,0.30776 1.675494,0.5398 1.285733,0.32375 2.04029,0.82529 3.243674,2.15598 1.741221,1.92543 2.475836,1.88738 3.493933,-0.18096 z m -38.087505,-5.76043 c 1.822525,-3.57244 6.491343,-6.55539 10.310345,-6.58737 l 2.331775,-0.0195 -0.900821,-1.18125 c -4.523286,-5.93138 -15.07853,4.32577 -13.265931,12.89129 0.270872,1.28002 0.295634,1.22646 0.530118,-1.14657 0.13733,-1.38982 0.576593,-3.13738 0.994514,-3.95658 z m 20.167019,3.35908 c 6.790479,-5.24777 2.928663,-16.30566 -5.677174,-16.25596 -3.940865,0.0228 -4.68339,0.81513 -2.322974,2.4789 2.86714,2.02095 4.28363,6.54018 2.892885,9.22958 -0.742721,1.43627 -1.927367,2.51166 -2.517409,2.28524 -0.681596,-0.26156 -1.930623,0.70078 -1.601253,1.23371 1.511125,2.44505 6.651463,3.01811 9.225925,1.02853 z m 59.764479,-2.04365 c -0.50631,-0.55947 -0.52928,-0.67355 -0.10264,-0.50983 0.40381,0.15496 0.62202,-0.0984 0.82256,-0.95496 0.50223,-2.14524 0.46095,-3.15472 -0.138,-3.37493 -0.3125,-0.1149 -0.64756,-0.29987 -0.74457,-0.41103 -0.32488,-0.37228 -4.40585,-2.2737 -4.71144,-2.19518 -0.16594,0.0427 -0.5159,-0.10023 -0.77769,-0.31749 -0.3916,-0.325 -0.4205,-0.20162 -0.16306,0.69604 0.51688,1.80225 2.77096,5.21318 4.323,6.54167 1.57829,1.35096 2.54789,1.69264 1.49184,0.52571 z m -4.19691,-4.8203 c -0.19145,-0.50278 -0.15093,-0.5433 0.19748,-0.19748 0.24109,0.2393 0.34949,0.52396 0.24087,0.63257 -0.10862,0.10862 -0.30587,-0.0872 -0.43835,-0.43509 z m -47.526936,1.15235 c 0.920624,-2.54594 0.22408,-6.47983 -1.31507,-7.42715 -2.064976,-1.27096 -5.324479,-1.21085 -4.209519,0.0776 0.842231,0.97331 1.387697,2.84483 1.7153,5.88526 0.165347,1.53456 0.484313,2.90364 0.708812,3.04238 0.848332,0.5243 2.67676,-0.40636 3.100477,-1.57813 z m 5.922119,0.41986 c 2.559581,-4.94968 -2.275721,-11.03932 -6.498174,-8.18388 -0.05639,0.0381 0.240421,0.6506 0.659584,1.36103 0.857026,1.45255 1.490712,5.87691 1.019313,7.11679 -0.629189,1.65489 3.95612,1.37522 4.819277,-0.29394 z m -29.199056,-0.90926 c 0.278962,-0.2576 0.801038,-0.39153 1.160169,-0.29761 0.359131,0.0939 0.652965,0.0269 0.652965,-0.149 0,-0.17586 -0.14711,-0.31975 -0.326911,-0.31975 -0.179801,0 -0.378238,-0.23532 -0.440972,-0.52294 -0.13557,-0.62156 -2.163198,0.81911 -2.78313,1.97747 -0.407519,0.76145 0.600147,0.36244 1.737879,-0.68817 z m 65.880873,1.05995 c -0.0987,-0.1597 -0.34003,-1.28748 -0.5363,-2.50618 -0.91247,-5.66596 -8.80246,-12.39627 -14.7121,-12.54972 -0.21624,-0.006 -0.65663,-0.22888 -0.97866,-0.49613 -0.8842,-0.73382 -1.04543,-0.25696 -0.57548,1.70202 0.2339,0.97499 0.32405,2.37262 0.20034,3.10584 -0.1424,0.84402 -0.025,1.89949 0.32005,2.8768 0.29973,0.84901 0.53581,2.11901 0.52463,2.82222 -0.0326,2.04782 -1.34553,-3.24182 -1.37044,-5.52122 -0.0317,-2.90114 -1.15184,-5.66901 -2.92276,-7.22218 -1.87283,-1.64254 -2.38924,-1.6754 -2.38924,-0.15199 0,1.39993 -0.99221,4.47257 -1.44428,4.47257 -0.17578,0 -0.31961,0.21045 -0.31961,0.46767 0,0.25722 -0.4178,0.85253 -0.92844,1.32291 -0.81713,0.75271 -0.75016,0.528 0.55856,-1.87425 2.094,-3.84366 1.90989,-7.35768 -0.46709,-8.91514 -1.14174,-0.74809 -1.48737,-0.51691 -1.75806,1.17588 -0.59787,3.73884 -2.79131,6.55193 -6.082977,7.80143 l -1.531352,0.58129 2.498347,1.17828 c 2.235652,1.05439 2.630142,1.13783 3.751782,0.79359 1.29276,-0.39676 2.00679,-0.26057 1.65111,0.31493 -0.11163,0.18062 -0.90797,0.3284 -1.76965,0.3284 -1.98563,0 -2.09123,-0.23406 1.52013,3.36941 4.81282,4.80231 7.40265,6.33023 8.70851,5.13776 1.10703,-1.0109 4.90201,-2.86878 6.33485,-3.1013 2.05747,-0.33388 1.60613,-2.08645 -1.78865,-6.94535 -1.10295,-1.57863 -1.72522,-2.64134 -1.38281,-2.36157 1.10549,0.90325 4.79834,6.47 5.21533,7.86179 0.22255,0.7428 0.57662,1.28901 0.78683,1.21381 0.2102,-0.0752 1.17594,0.29953 2.14608,0.83274 0.97014,0.53321 2.40992,1.3058 3.19952,1.71686 0.7896,0.41106 1.89086,1.22254 2.44725,1.80329 0.98052,1.02344 1.46216,1.36029 1.09458,0.76554 z m 10.01559,-3.07805 c 0,-0.66325 -4.44792,-9.10514 -5.54659,-10.52711 -1.57929,-2.044 -4.95263,-4.17667 -8.1862,-5.17542 l -2.27829,-0.70369 -3.28335,1.13752 c -3.76855,1.30562 -3.89592,1.4671 -1.60765,2.03831 0.92163,0.23006 2.37038,0.80453 3.21943,1.2766 0.84906,0.47207 1.8423,0.85831 2.2072,0.85831 0.3649,0 1.01483,0.40412 1.4443,0.89805 0.42947,0.49393 1.7381,1.37022 2.90808,1.94732 2.15152,1.06123 7.46482,5.11349 9.49116,7.23855 1.03566,1.08612 1.63191,1.45572 1.63191,1.01156 z m -10.69558,-8.99139 c -0.50213,-0.39498 -1.39667,-0.88676 -1.98786,-1.09285 -0.59119,-0.20609 -1.07489,-0.52351 -1.07489,-0.70539 0,-0.18555 0.32291,-0.15786 0.73577,0.0631 0.40467,0.21657 0.8163,0.31324 0.91473,0.21481 0.0984,-0.0984 -0.31205,-0.43287 -0.91216,-0.7432 -0.60012,-0.31033 -1.09112,-0.71891 -1.09112,-0.90795 0,-0.18905 -0.59531,-0.36751 -1.32291,-0.39658 -1.09405,-0.0437 -1.15192,-0.0786 -0.3345,-0.20158 1.91963,-0.28885 7.42099,3.08602 6.76382,4.14934 -0.30954,0.50085 -0.67609,0.41854 -1.69088,-0.3797 z m -25.01033,6.99927 c -0.56643,-0.85308 -1.33575,-1.25123 -1.33575,-0.69129 0,0.46852 1.00646,1.46571 1.47934,1.46571 0.21535,0 0.1552,-0.32442 -0.14359,-0.77442 z m -6.550287,-9.4746 c 0.527492,-0.24062 0.88446,-0.55822 0.793263,-0.70578 -0.0912,-0.14756 0.126003,-0.19198 0.482664,-0.0987 1.20281,0.31454 3.23479,-4.3694 3.2253,-7.43467 -0.0168,-5.44036 -3.22632,-8.53428 -9.684801,-9.33611 -3.525693,-0.43771 -3.7762,-0.27231 -1.703828,1.12498 2.616145,1.76394 3.45888,3.75372 3.45888,8.16676 v 3.53949 l -1.5875,0.81634 c -1.329504,0.68366 -1.91716,0.78115 -3.615972,0.59984 -2.34388,-0.25015 -2.52338,0.0381 -1.224133,1.9661 1.422745,2.11121 6.634538,2.83129 9.856127,1.36176 z m -20.185466,-6.60394 c 0,-3.27654 8.309913,-6.52634 12.853706,-5.02675 1.656825,0.5468 1.858789,0.32521 1.023,-1.12242 -2.490047,-4.3129 -10.719792,-2.33527 -13.510353,3.24657 -0.772462,1.54513 -1.171665,3.52778 -0.710311,3.52778 0.189177,0 0.343958,-0.28133 0.343958,-0.62518 z m 14.704876,-4.02708 c -0.112616,-0.28142 -0.196209,-0.19783 -0.213136,0.21314 -0.01532,0.37189 0.06806,0.58025 0.185285,0.46302 0.117225,-0.11722 0.129758,-0.4215 0.02785,-0.67616 z"
         id="path22" /></g></g></svg>
