<?xml version="1.0" encoding="UTF-8" standalone="no"?>
<!-- Created with Inkscape (http://www.inkscape.org/) -->

<svg
   width="89.318291mm"
   height="68.522903mm"
   viewBox="0 0 89.31829 68.522903"
   version="1.1"
   id="svg1"
   xml:space="preserve"
   inkscape:version="1.4.3 (0d15f75, 2025-12-25)"
   xmlns:inkscape="http://www.inkscape.org/namespaces/inkscape"
   xmlns:sodipodi="http://sodipodi.sourceforge.net/DTD/sodipodi-0.dtd"
   xmlns="http://www.w3.org/2000/svg"
   xmlns:svg="http://www.w3.org/2000/svg"><sodipodi:namedview
     id="namedview1"
     pagecolor="#ffffff"
     bordercolor="#666666"
     borderopacity="1.0"
     inkscape:showpageshadow="2"
     inkscape:pageopacity="0.0"
     inkscape:pagecheckerboard="0"
     inkscape:deskcolor="#d1d1d1"
     inkscape:document-units="mm"
     inkscape:zoom="1.0167041"
     inkscape:cx="170.15767"
     inkscape:cy="57.538866"
     inkscape:window-width="1920"
     inkscape:window-height="1009"
     inkscape:window-x="-8"
     inkscape:window-y="-8"
     inkscape:window-maximized="1"
     inkscape:current-layer="layer1" /><defs
     id="defs1" /><g
     inkscape:label="Layer 1"
     inkscape:groupmode="layer"
     id="layer1"
     transform="translate(-56.903673,-112.68575)"><path
       style="fill:#3f1d0c;fill-opacity:1"
       d="m 90.703206,180.68499 c -10.290957,-3.16021 -13.912672,-18.02244 -6.102898,-25.04414 2.042713,-1.83659 3.174412,-3.60955 2.746232,-4.30236 -0.181691,-0.29399 -0.745334,0.0263 -1.826323,1.03787 -4.873305,4.56025 -11.998899,4.86865 -15.999912,0.69249 -3.023382,-3.15573 -6.556364,3.36671 -4.657401,8.5983 0.986193,2.71693 0.942532,2.73778 -1.840775,0.87916 -9.094512,-6.07308 -7.883424,-18.05947 2.5209,-24.94988 6.061941,-4.0146 8.700412,-4.5579 15.028073,-3.09449 5.075441,1.17381 10.617531,1.949 10.617531,1.48511 0,-0.0659 -0.864315,-1.05588 -1.920699,-2.20002 -1.056385,-1.14414 -2.604197,-3.22884 -3.439584,-4.63265 -0.835386,-1.40382 -1.620005,-2.55694 -1.743598,-2.56249 -0.967248,-0.0434 -3.761729,2.50017 -4.571393,4.16096 l -0.915551,1.87799 -0.825032,-1.87799 c -2.750313,-6.26044 0.949101,-13.20437 8.1622,-15.32074 1.046247,-0.30697 2.272895,-0.90043 2.725883,-1.3188 3.795286,-3.50522 13.611771,-0.19951 17.937791,6.04056 2.78101,4.01147 4.87724,6.09162 7.3965,7.33973 l 1.81624,0.89983 3.98785,-1.26277 c 10.92203,-3.4585 18.39263,0.0744 22.36088,10.57467 0.80784,2.13761 4.06184,12.90901 4.06184,13.44553 0,0.1073 -0.57564,-0.14455 -1.27919,-0.55965 -1.62131,-0.9566 -1.67546,-0.88052 -1.15762,1.62664 0.48524,2.34931 0.20112,4.70285 -0.56773,4.70285 -0.95667,0 -4.55769,-1.79532 -6.41752,-3.1995 -1.88018,-1.41955 -2.13065,-1.48308 -1.55057,-0.39328 0.36445,0.68467 1.59545,8.85421 1.36839,9.08127 -0.29875,0.29875 -4.48538,-1.32344 -6.41605,-2.48603 -1.49111,-0.8979 -1.97138,-1.05526 -1.97138,-0.64591 0,3.64583 -5.63823,9.50038 -10.17854,10.56905 -4.04204,0.95138 -8.31043,0.53737 -6.18533,-0.59995 3.62733,-1.94129 6.17832,-7.33157 4.11412,-8.69321 -0.52847,-0.34861 -2.2799,-1.94352 -3.89205,-3.54425 -3.10192,-3.07994 -3.61457,-3.29689 -5.48336,-2.3206 -0.62095,0.32441 -2.16088,0.94109 -3.42206,1.3704 l -2.29306,0.78058 0.0687,1.54002 c 0.0378,0.84701 0.10933,2.41314 0.15899,3.48029 0.19165,4.11861 -2.755465,7.63198 -6.136715,7.31582 l -1.675696,-0.15669 0.0034,1.27113 c 0.01036,3.8214 4.604786,8.85586 8.081811,8.85586 h 0.89117 l -0.81136,0.5683 c -2.116535,1.48248 -7.515913,1.9694 -10.76716,0.97099 z m -2.93338,-6.03721 c -1.410069,-2.86198 -2.009331,-5.83979 -1.774843,-8.81945 0.196325,-2.49472 -0.23362,-2.86433 -1.483523,-1.27534 -1.76111,2.23889 1.805747,12.47604 4.346935,12.47604 0.04656,0 -0.443297,-1.07156 -1.088569,-2.38125 z m 9.712539,-9.34861 c 3.149525,-5.10877 -3.878848,-14.96074 -7.94669,-11.1392 -1.171395,1.10047 -1.070371,1.26521 1.476569,2.40795 1.26118,0.56585 2.293055,1.18819 2.293055,1.38297 0,0.19479 -1.281651,-0.19441 -2.848113,-0.86489 -2.471508,-1.05785 -2.956208,-1.16103 -3.665594,-0.78037 -1.149274,0.61672 -3.329329,3.32853 -3.572291,4.44364 -0.111918,0.51366 -0.26462,1.13236 -0.339339,1.3749 -0.1903,0.61771 0.120462,0.55064 1.130713,-0.24402 2.84986,-2.2417 7.795614,-1.05746 10.25644,2.45585 0.26912,0.38422 0.73061,0.69858 1.02553,0.69858 0.33595,0 0.12356,-0.34723 -0.5686,-0.92965 -0.63984,-0.53839 -1.024121,-1.14 -0.913054,-1.42944 0.10548,-0.27487 0.05824,-0.41724 -0.104983,-0.31636 -0.163221,0.10087 -0.597965,-0.0614 -0.966098,-0.36062 -0.368133,-0.29921 -0.47555,-0.44639 -0.238703,-0.32705 0.261767,0.1319 0.516337,-0.1245 0.649198,-0.65387 0.26952,-1.07385 1.0282,-1.4093 1.69019,-0.74732 0.27356,0.27356 0.59565,0.39911 0.71576,0.279 0.12012,-0.12012 0.21839,-0.0418 0.21839,0.17394 0,0.21577 0.43656,0.60091 0.97014,0.85585 1.30846,0.62517 1.40513,1.79532 0.28781,3.48371 -0.50335,0.76061 -0.76713,1.38293 -0.58617,1.38293 0.18095,0 0.64708,-0.51594 1.03584,-1.14653 z m 25.291095,-4.88252 c 1.26844,-3.59514 0.27855,-8.32242 -1.63778,-7.82129 -0.83336,0.21793 -0.83073,0.32374 0.0828,3.33126 0.72974,2.40252 0.74991,3.70559 0.10137,6.55008 l -0.22124,0.97038 0.57847,-0.78122 c 0.31815,-0.42967 0.81154,-1.44182 1.0964,-2.24921 z m -6.89039,-5.05134 c 0,-4.40584 6.75676,-6.50561 9.94289,-3.08991 0.7403,0.79363 1.346,1.76662 1.346,2.16219 0,0.96679 0.57055,0.91592 0.83598,-0.0745 0.69871,-2.60725 -0.70815,-7.27083 -2.88176,-9.55265 -5.44605,-5.71721 -15.01103,2.41662 -11.35954,9.65987 1.4018,2.78069 2.11643,3.08289 2.11643,0.89503 z m 10.23055,-7.55804 c 0,-0.22637 -0.22875,-0.41157 -0.50834,-0.41157 -0.27959,0 -0.60646,-0.15875 -0.72638,-0.35278 -0.31772,-0.51408 0.28682,-0.43138 1.07855,0.14754 0.37633,0.27518 0.56542,0.61914 0.4202,0.76436 -0.14521,0.14521 -0.26403,0.0788 -0.26403,-0.14755 z m -2.53559,-1.35812 c 0.25466,-0.1019 0.55893,-0.0894 0.67616,0.0279 0.11723,0.11723 -0.0911,0.20061 -0.46302,0.18529 -0.41097,-0.0169 -0.49456,-0.10052 -0.21314,-0.21314 z m -25.175925,8.72807 c 0.34102,-0.37683 0.53691,-0.89277 0.4353,-1.14653 -0.11565,-0.28885 -0.19515,-0.21953 -0.21259,0.18538 -0.0153,0.35571 -0.22221,0.58197 -0.45975,0.50279 -0.54684,-0.18228 -0.98532,-2.26519 -0.73762,-3.50388 0.45733,-2.287 -5.041974,-2.68477 -5.927612,-0.42875 -0.415397,1.05816 -0.374286,1.12618 0.835327,1.38199 1.637187,0.34624 3.331935,1.46276 4.040165,2.66171 0.71392,1.20857 1.17572,1.2877 2.02678,0.34729 z m 4.957355,-2.16721 c 0.77611,-0.20134 1.60483,-0.38276 1.84161,-0.40316 1.14668,-0.0988 -3.63261,-5.98106 -5.722155,-7.04276 -0.38806,-0.19717 0.13779,0.39338 1.168545,1.31235 4.32826,3.85881 4.87181,5.77522 1.65366,5.83032 -0.97014,0.0166 -2.08138,0.16663 -2.469435,0.33338 -1.05675,0.4541 1.753715,0.4301 3.527775,-0.0301 z m -43.265429,-0.41084 c -0.837536,-4.55472 6.531069,-11.21718 11.931071,-10.78771 1.75545,0.13962 1.786715,0.0862 0.682689,-1.16696 -2.174843,-2.46857 -5.24979,-1.98114 -9.089087,1.44077 -2.586015,2.30488 -4.891517,8.23925 -4.051445,10.42844 0.244713,0.63772 0.640118,0.70186 0.526772,0.0855 z m 21.123213,-0.84741 c 2.256576,-1.81389 3.981272,-6.58322 2.805741,-7.75875 -0.09801,-0.098 -0.05065,-0.62295 0.105249,-1.16654 0.949539,-3.31085 -3.67765,-7.07244 -8.699909,-7.07244 -3.517887,0 -3.814553,0.57617 -1.474596,2.86388 1.964357,1.9205 3.133173,4.27722 3.116045,6.28299 -0.01816,2.12642 -2.346382,5.52172 -3.567403,5.20241 -0.954866,-0.2497 -1.580791,0.30995 -1.055093,0.94338 1.843424,2.22119 6.425554,2.58958 8.769966,0.70507 z m -5.264201,0.34184 c 0.254661,-0.10191 0.558932,-0.0894 0.676157,0.0279 0.117225,0.11722 -0.09113,0.2006 -0.463021,0.18528 -0.410966,-0.0169 -0.494559,-0.10052 -0.213136,-0.21313 z m 1.981636,-0.0717 c 0.106282,-0.17196 -0.138447,-0.3994 -0.543842,-0.50542 -0.468682,-0.12256 -0.640079,-0.3497 -0.470692,-0.62378 0.164233,-0.26573 0.11955,-0.34028 -0.116517,-0.19438 -0.2106,0.13016 -0.478337,0.0823 -0.594972,-0.10647 -0.116635,-0.18872 -0.466765,-0.24539 -0.778068,-0.12593 -0.385689,0.148 -0.513208,0.0588 -0.400277,-0.27999 0.09115,-0.27345 0.390625,-0.49719 0.665498,-0.49719 0.604615,0 1.381713,-1.37503 1.381713,-2.44486 0,-1.93516 6.036433,-4.94016 6.494717,-3.23313 0.666533,2.48272 -0.266362,5.64106 -1.908606,6.46163 -0.48507,0.24238 -0.723195,0.44655 -0.529167,0.45373 0.194028,0.007 -0.0441,0.32348 -0.529166,0.70291 -0.869693,0.68028 -3.046128,1.00047 -2.670621,0.39288 z m 30.308121,-2.25747 c -1.00181,-0.56397 -3.71401,-3.10874 -4.23878,-3.97711 -0.38789,-0.64185 -0.40182,-0.63485 -0.22269,0.11196 0.23632,0.98517 3.82825,4.32322 4.63364,4.30613 0.46092,-0.01 0.42349,-0.10564 -0.17217,-0.44098 z m 2.3486,-1.10306 c 0,-0.64013 -0.5463,-1.2425 -2.20486,-2.43115 -1.21267,-0.86909 -3.57702,-3.0249 -5.2541,-4.79068 -2.8546,-3.00557 -6.322775,-5.33138 -7.951625,-5.33246 -0.80778,-5.4e-4 -0.6401,1.94136 0.33505,3.88027 1.17223,2.33075 1.36904,5.24985 0.47102,6.98643 -0.32067,0.6201 -0.43947,1.12746 -0.264,1.12746 0.30827,0 1.20161,-1.83041 1.3357,-2.73681 0.0361,-0.24406 -0.0527,-1.31563 -0.19727,-2.38125 -0.27992,-2.06273 0.15505,-2.58495 1.09829,-1.31861 0.25353,0.34039 1.13566,1.05702 1.96028,1.59251 l 1.499295,0.97362 -0.008,-0.97515 c -0.004,-0.53633 -0.32458,-1.67347 -0.71182,-2.52697 -0.38724,-0.85351 -0.64407,-1.61184 -0.57073,-1.68518 0.30297,-0.30298 4.46552,4.54067 4.24008,4.93388 -0.13237,0.23089 -0.11301,0.30435 0.043,0.16324 0.15604,-0.1411 0.78838,0.1764 1.40519,0.70556 0.61681,0.52916 1.8719,1.48036 2.78909,2.11379 0.91718,0.63343 1.57093,1.30812 1.45277,1.49931 -0.20573,0.33287 0.052,1.05317 0.37678,1.05317 0.0856,0 0.15557,-0.38294 0.15557,-0.85098 z m -12.876375,0.14543 c -0.11992,-0.19403 -0.4071,-0.35035 -0.63818,-0.34738 -0.25246,0.003 -0.20895,0.1419 0.10901,0.34738 0.67773,0.43798 0.79985,0.43798 0.52917,0 z m -9.118899,-1.87602 c 0.0956,-0.0956 -0.353539,-0.14916 -0.998087,-0.11904 -1.097366,0.0513 -1.178236,-0.0238 -1.271426,-1.17994 -0.0702,-0.87093 -0.0011,-1.08703 0.234476,-0.73345 0.285523,0.42852 0.461623,0.41764 1.213394,-0.0749 0.986103,-0.64612 1.484998,-0.14022 1.058101,1.07296 -0.17444,0.49573 -0.126054,0.53293 0.245602,0.1888 1.368349,-1.26699 0.557064,-6.20106 -1.205481,-7.33148 -1.937222,-1.24245 -5.053921,-0.92731 -3.747667,0.37895 0.723798,0.72379 1.771928,4.57886 1.771928,6.51722 v 2.02429 l 1.262671,-0.28478 c 0.694468,-0.15663 1.340889,-0.36299 1.436489,-0.4586 z m 4.961345,0.49357 c 1.475204,-0.0373 1.999624,-1.01279 1.909264,-3.55156 -0.15381,-4.32167 -2.427428,-7.54974 -4.362742,-6.19419 -0.427848,0.29967 -1.060084,0.54486 -1.404967,0.54486 -0.763634,0 -0.762761,-0.0276 -0.04458,1.41199 0.814475,1.63266 1.489066,5.51418 1.18932,6.84321 -0.233693,1.03616 -0.188437,1.10722 0.664407,1.04312 0.503349,-0.0378 1.425533,-0.0817 2.049297,-0.0974 z m -2.091311,-1.43978 c 0.120138,-0.81855 0.336288,-1.05833 0.954039,-1.05833 0.43929,0 0.996335,-0.23812 1.237878,-0.52917 0.501948,-0.60481 1.058338,-0.69754 1.058338,-0.17638 0,0.19402 -0.1786,0.31309 -0.39688,0.26458 -0.21828,-0.0485 -0.469635,0.11024 -0.558564,0.35278 -0.09624,0.26248 0.132738,0.44097 0.565704,0.44097 0.64785,0 0.68345,0.0964 0.32555,0.88194 -0.667807,1.46567 -3.404828,1.31414 -3.186065,-0.17639 z m 12.06969,0.93663 c 0,-0.0669 -0.35719,-0.42413 -0.79375,-0.79375 l -0.79375,-0.67204 0.67203,0.79375 c 0.63155,0.74593 0.91547,0.95435 0.91547,0.67204 z m 27.33088,-4.37255 c -1.33313,-4.58578 -4.96142,-7.67223 -11.77835,-10.01939 -2.45358,-0.8448 -2.47248,-1.00625 0.32508,2.7776 1.32441,1.79136 2.59232,3.81542 2.81757,4.49792 0.22524,0.6825 0.57115,1.24091 0.76869,1.24091 0.19753,0 0.82022,0.32831 1.38375,0.72957 0.56353,0.40127 1.0246,0.57938 1.0246,0.39581 0,-0.18357 -0.33637,-0.55711 -0.74748,-0.83007 -0.79835,-0.53009 -1.2616,-2.92436 -0.64013,-3.30845 0.18743,-0.11584 0.23672,-0.37899 0.10953,-0.58478 -0.13254,-0.21447 -0.0221,-0.30604 0.25883,-0.21454 0.87087,0.28366 2.14805,3.14836 1.92966,4.3282 -0.1797,0.97083 -0.0575,1.15204 1.29769,1.92431 0.8479,0.48319 1.30634,0.62197 1.05815,0.32032 -0.24085,-0.29273 -0.36672,-0.60342 -0.27972,-0.69043 0.087,-0.087 -0.17044,-0.18295 -0.5721,-0.2132 -1.0319,-0.0777 -1.21728,-0.3748 -0.72538,-1.16245 0.51737,-0.82844 0.56276,-2.10541 0.0748,-2.10541 -0.19403,0 -0.35278,-0.26272 -0.35278,-0.58384 0,-0.85256 1.20134,0.28406 1.78207,1.68608 0.27377,0.66094 0.61737,0.98141 0.92547,0.86318 0.55364,-0.21245 1.17301,1.10132 1.17301,2.48809 0,0.58229 -0.13967,0.79348 -0.41305,0.62452 -0.22717,-0.1404 -0.10811,0.15252 0.26459,0.65093 l 0.67763,0.90621 0.11203,-0.85227 c 0.0616,-0.46875 -0.15178,-1.75972 -0.4742,-2.86882 z m -16.23593,1.38525 c 0.10465,-0.25669 -0.2777,-0.13098 -0.85764,0.28197 -0.88508,0.63023 -1.17033,0.67926 -1.84953,0.31791 -1.26725,-0.6742 -4.40834,-3.05729 -4.93635,-3.74511 -0.26385,-0.34371 -1.17806,-1.25993 -2.03159,-2.03604 l -1.55185,-1.41111 1.49934,1.83939 c 1.55528,1.90803 5.09288,4.89447 6.90892,5.83252 1.10461,0.57056 2.33866,0.0979 2.8187,-1.07953 z m 0.83583,-1.77362 c 0.062,-0.419 -0.0664,-0.76182 -0.2854,-0.76182 -0.21898,0 -0.29933,0.15987 -0.17857,0.35527 0.12077,0.1954 -0.0286,0.45051 -0.33195,0.56691 -0.74937,0.28756 -0.70043,0.80073 0.0658,0.69037 0.33955,-0.0489 0.66809,-0.43173 0.73009,-0.85073 z m 5.00633,-0.40904 c 1.71122,0 0.76828,-2.59475 -2.91655,-8.02569 -2.00244,-2.95132 -2.83474,-3.35015 -2.33322,-1.11804 0.1779,0.79178 0.29012,2.3396 0.24937,3.43959 -0.0415,1.11955 0.12854,2.3734 0.38619,2.84824 0.25315,0.46654 0.47147,1.59086 0.48516,2.49848 l 0.0249,1.65023 1.70119,-0.64641 c 0.93565,-0.35552 2.01699,-0.6464 2.40296,-0.6464 z m 20.10288,-0.60407 c -0.38439,-0.59947 -0.39434,-0.5987 -0.20135,0.0156 0.11166,0.35542 0.21555,0.83167 0.23087,1.05834 0.0201,0.29744 0.0761,0.29311 0.20136,-0.0156 0.0954,-0.23522 -0.008,-0.71147 -0.23088,-1.05833 z m -25.80521,-4.51765 c 0.10857,-2.87024 -0.87976,-5.42202 -2.86681,-7.40189 l -1.77029,-1.76389 -0.46913,2.03151 c -0.25802,1.11733 -0.72718,2.53051 -1.04256,3.1404 -0.49243,0.95226 -0.50198,1.14887 -0.0675,1.39199 0.95511,0.53451 4.50656,3.57673 4.50656,3.86039 0,0.29339 1.07624,0.64028 1.44154,0.46463 0.11375,-0.0547 0.23446,-0.83011 0.26824,-1.72314 z m 20.51521,1.06478 c -0.45569,-0.48507 -0.96847,-0.88195 -1.13949,-0.88195 -0.29369,0 1.50007,1.72904 1.81835,1.75274 0.0823,0.006 -0.22316,-0.38572 -0.67886,-0.87079 z m -30.78721,-0.74231 c -0.11722,-0.11722 -0.42149,-0.12975 -0.67615,-0.0279 -0.28142,0.11262 -0.19783,0.19621 0.21313,0.21314 0.37189,0.0153 0.58025,-0.0681 0.46302,-0.18529 z m 33.43305,-1.19797 c -0.30101,-0.58208 -0.62666,-1.05833 -0.72368,-1.05833 -0.097,0 0.0699,0.47625 0.3709,1.05833 0.30101,0.58208 0.62666,1.05833 0.72367,1.05833 0.097,0 -0.0699,-0.47625 -0.37089,-1.05833 z m -33.00402,-0.69571 c 3.85645,-1.96741 5.07477,-7.37215 2.28964,-10.15729 -1.26178,-1.26177 -1.9199,-1.25287 -1.91399,0.0259 0.002,0.42511 -0.34277,1.75908 -0.76606,2.96437 l -0.76963,2.19143 1.53372,1.36106 c 1.59522,1.41563 1.74473,2.34082 0.44737,2.76851 -0.34395,0.11339 -1.12682,0.42786 -1.73971,0.69883 -1.10198,0.48722 -1.6617,0.43363 -3.20718,-0.30704 -0.929185,-0.44531 -1.010315,-0.80814 -0.24626,-1.10133 0.31394,-0.12047 0.45555,-0.0613 0.33195,0.13864 -0.30614,0.49537 0.65838,0.4337 1.16667,-0.0746 0.23283,-0.23284 0.42333,-0.6569 0.42333,-0.94236 0,-0.28547 0.27781,-0.83244 0.61736,-1.2155 0.59907,-0.67583 0.59384,-0.68413 -0.17639,-0.27995 -0.43656,0.22909 -0.79375,0.54155 -0.79375,0.69435 0,0.38995 -2.935965,1.81378 -3.742795,1.81511 -0.9251,0.002 3.375905,2.0551 4.374215,2.08852 0.44429,0.0149 1.42147,-0.28602 2.17151,-0.66866 z m 31.78595,-1.38983 c -2.14654,-4.01085 -9.23931,-6.64881 -13.82848,-5.14312 -3.70827,1.21666 -3.93031,1.43177 -1.82511,1.7681 3.84843,0.61484 8.76593,0.30012 5.72989,-0.3667 -0.59374,-0.13041 -0.99126,-0.32536 -0.88339,-0.43323 0.10788,-0.10788 -0.0792,-0.41968 -0.41574,-0.6929 -0.54063,-0.43891 -0.4001,-0.48019 1.20689,-0.35445 2.53693,0.1985 6.75824,2.27058 8.65883,4.25028 1.74269,1.81522 1.84922,1.89153 1.35711,0.97202 z m -37.400635,-1.66364 c 0.29465,-0.29518 -0.0877,-0.30915 -1.48239,-0.0541 -2.26681,0.41446 -5.787554,0.21273 -6.364982,-0.3647 -0.322257,-0.32226 0.07649,-0.41808 1.739743,-0.41808 1.396179,0 2.220629,0.15565 2.335759,0.44097 0.11376,0.28192 0.18798,0.23484 0.20579,-0.13054 0.0261,-0.53476 -0.46347,-0.73678 -3.676318,-1.5172 -0.388056,-0.0943 -0.110243,-0.1313 0.617361,-0.0823 0.727604,0.049 1.322917,-0.0378 1.322917,-0.19287 0,-0.15507 0.23813,-0.28194 0.52917,-0.28194 0.29104,0 0.52916,-0.14805 0.52916,-0.32901 0,-0.18095 0.3175,-0.42977 0.70556,-0.55293 0.38805,-0.12317 0.70555,-0.36928 0.70555,-0.54692 0,-0.17764 -0.59531,0.0128 -1.32291,0.42322 -1.382181,0.77962 -3.486447,1.01413 -5.081814,0.56635 -1.273804,-0.35754 -1.000217,0.72415 0.616814,2.4387 l 1.171959,1.24264 3.525781,-0.12172 c 1.98084,-0.0684 3.69977,-0.29602 3.92285,-0.51951 z m 26.095095,-0.30776 c -0.48507,-0.2773 -1.0407,-0.50417 -1.23472,-0.50417 -0.19403,0 0.0441,0.22687 0.52916,0.50417 0.48507,0.27729 1.0407,0.50416 1.23472,0.50416 0.19403,0 -0.0441,-0.22687 -0.52916,-0.50416 z m 5.11527,0.17638 c -0.11991,-0.19402 -0.40709,-0.35034 -0.63818,-0.34737 -0.25245,0.003 -0.20894,0.1419 0.10902,0.34737 0.67773,0.43799 0.79985,0.43799 0.52916,0 z m -27.72244,-2.87378 c 3.8231,-7.12157 -0.12024,-13.6396 -8.613655,-14.23772 -2.369053,-0.16683 -2.71435,-0.126 -2.150418,0.2543 3.356758,2.26367 4.440778,4.32824 4.449838,8.47489 l 0.006,2.91426 2.19344,2.38125 c 2.672355,2.90118 2.671375,2.90113 4.114435,0.21302 z m -21.883799,-5.71397 c 2.527485,-2.74688 9.665374,-4.20754 12.375665,-2.53249 0.554372,0.34262 0.437331,-0.46703 -0.231085,-1.59857 -2.332612,-3.94879 -10.62949,-1.58576 -13.133099,3.74044 -0.792674,1.68634 -1.062931,3.43913 -0.32367,2.09921 0.214097,-0.38806 0.804583,-1.15692 1.312189,-1.70859 z"
       id="path8" /></g></svg>
