<?xml version="1.0" encoding="UTF-8" standalone="no"?>
<!-- Created with Inkscape (http://www.inkscape.org/) -->

<svg
   width="89.148186mm"
   height="68.569901mm"
   viewBox="0 0 89.148185 68.5699"
   version="1.1"
   id="svg1"
   xml:space="preserve"
   inkscape:version="1.4.3 (0d15f75, 2025-12-25)"
   xmlns:inkscape="http://www.inkscape.org/namespaces/inkscape"
   xmlns:sodipodi="http://sodipodi.sourceforge.net/DTD/sodipodi-0.dtd"
   xmlns="http://www.w3.org/2000/svg"
   xmlns:svg="http://www.w3.org/2000/svg"><sodipodi:namedview
     id="namedview1"
     pagecolor="#ffffff"
     bordercolor="#666666"
     borderopacity="1.0"
     inkscape:showpageshadow="2"
     inkscape:pageopacity="0.0"
     inkscape:pagecheckerboard="0"
     inkscape:deskcolor="#d1d1d1"
     inkscape:document-units="mm"
     inkscape:zoom="1.0167041"
     inkscape:cx="161.30554"
     inkscape:cy="24.097474"
     inkscape:window-width="1920"
     inkscape:window-height="1009"
     inkscape:window-x="-8"
     inkscape:window-y="-8"
     inkscape:window-maximized="1"
     inkscape:current-layer="layer1" /><defs
     id="defs1" /><g
     inkscape:label="Layer 1"
     inkscape:groupmode="layer"
     id="layer1"
     transform="translate(-56.758047,-111.87244)"><g
       id="g18"
       transform="translate(0.52047265,-4.6842539)"><path
         style="fill:#979797"
         d="m 89.397832,184.47965 c -10.172648,-3.76586 -13.207517,-17.65868 -5.473165,-25.05468 3.112971,-2.97679 3.820627,-5.78286 0.742929,-2.94594 -4.637935,4.2751 -11.022683,4.67297 -15.462563,0.96355 -3.97572,-3.32162 -7.567129,3.66936 -4.712083,9.17247 0.736605,1.41981 0.444462,1.4972 -1.453327,0.38502 -15.662828,-9.17902 -1.47202,-33.36081 16.76634,-28.57061 1.833018,0.48143 3.807837,0.87533 4.388486,0.87533 0.580649,0 1.953059,0.18534 3.0498,0.41187 2.498822,0.51612 3.853189,0.15796 2.369925,-0.62673 -0.533577,-0.28227 -0.970139,-0.71658 -0.970139,-0.96513 0,-0.24854 -0.487998,-0.91816 -1.084439,-1.48803 -0.596442,-0.56988 -1.654024,-1.98864 -2.350182,-3.15281 -1.846338,-3.08758 -1.792445,-3.03648 -2.68088,-2.54184 -2.081014,1.15861 -3.341902,2.43944 -3.93799,4.00028 l -0.633452,1.65867 -0.903387,-1.73495 c -3.115235,-5.98276 1.292248,-14.09704 8.591719,-15.81756 0.582083,-0.1372 1.650868,-0.65597 2.375078,-1.15281 4.701094,-3.22521 13.335368,-0.21198 17.919608,6.25365 5.31867,7.50148 7.62035,8.64245 13.47656,6.68044 11.33963,-3.79913 18.89288,0.8088 23.14431,14.1194 3.44953,10.79998 3.45743,10.86282 1.18817,9.46035 l -1.24622,-0.77021 0.27169,0.8584 c 0.67085,2.11952 0.56575,6.32646 -0.15805,6.32646 -1.02887,0 -4.46238,-1.61059 -6.39788,-3.00111 -1.9398,-1.3936 -2.22873,-1.49415 -1.76687,-0.61487 0.83829,1.59592 1.78424,10.07412 1.0411,9.33098 -0.23283,-0.23284 -0.67646,-0.42334 -0.98585,-0.42334 -0.30938,0 -1.97596,-0.70937 -3.70351,-1.57639 -1.72755,-0.86702 -3.15843,-1.5417 -3.17972,-1.49931 -0.0213,0.0424 -0.47895,1.13687 -1.017,2.43215 -2.27967,5.48804 -6.59257,8.41181 -12.81668,8.68863 -3.81621,0.16973 -4.54316,-0.13861 -2.65654,-1.12675 3.3308,-1.74457 6.05462,-7.36247 4.12401,-8.50583 -1.3382,-0.79251 -3.51425,-2.77702 -4.86267,-4.43465 -1.81478,-2.23094 -2.59711,-2.43318 -4.93147,-1.27482 -1.00452,0.49846 -2.67712,1.17749 -3.71688,1.50896 l -1.890479,0.60268 0.294679,1.79891 c 1.0235,6.2482 -2.512171,11.91689 -6.489585,10.40468 -1.16172,-0.44168 -1.136635,-0.46518 -1.136635,1.06481 0,3.46077 3.601275,7.71649 7.36647,8.70514 l 1.62936,0.42783 -1.763885,0.80904 c -2.520012,1.15584 -7.694326,1.32501 -10.358703,0.33867 z m -2.289616,-5.39916 c -1.251602,-2.18201 -2.070904,-5.92382 -1.936081,-8.84224 0.127456,-2.75893 -0.314062,-3.36919 -1.323256,-1.82896 -1.692248,2.58269 -0.361867,7.36963 3.161822,11.37675 1.032517,1.17417 1.060324,0.97298 0.09752,-0.70555 z m 34.413594,-13.75834 c 1.56127,-2.96556 1.04506,-8.73125 -0.78172,-8.73125 -1.25959,0 -1.2848,0.24618 -0.30832,3.01084 0.73185,2.07205 0.7903,4.96001 0.13362,6.60236 -0.48132,1.2038 0.17883,0.59504 0.95642,-0.88195 z m -62.15833,-10.4227 c 0,-3.71316 6.130794,-8.81896 11.008444,-9.16795 l 2.435645,-0.17427 -0.942656,-0.98392 c -3.384106,-3.53225 -10.535025,0.39001 -12.262478,6.72593 -0.719562,2.63919 -0.980634,4.65007 -0.570836,4.3968 0.182534,-0.11281 0.331881,-0.47128 0.331881,-0.79659 z m 13.48405,-13.32161 c -1.21496,-0.85099 -0.959955,-1.12383 1.420811,-1.52018 l 2.204861,-0.36707 -2.245664,0.13012 c -2.847855,0.16503 -3.680969,2.20077 -0.939035,2.29457 0.188693,0.006 -0.0097,-0.23539 -0.440973,-0.53744 z m 48.09644,-3.87177 c -0.37663,-0.28487 -0.85288,-0.51232 -1.05833,-0.50544 -0.20545,0.007 0.0233,0.23937 0.50839,0.51666 1.14274,0.65325 1.42094,0.64757 0.54994,-0.0112 z m -2.84299,-1.126 c -0.38806,-0.0954 -0.90399,-0.33453 -1.14653,-0.53144 -0.26585,-0.21583 -0.44097,-0.2241 -0.44097,-0.0208 0,0.57055 0.43038,0.80934 1.38171,0.76662 0.73338,-0.0329 0.77357,-0.0748 0.20579,-0.21435 z m -7.23195,-3.76392 c 0,-0.0763 -0.24637,-0.23319 -0.54748,-0.34874 -0.31395,-0.12047 -0.45555,-0.0613 -0.33196,0.13864 0.20717,0.33522 0.87944,0.49582 0.87944,0.2101 z M 79.941457,127.2804 c 1.636885,-2.21976 6.480764,-3.73269 10.135341,-3.16566 1.323605,0.20536 2.480346,0.37339 2.570535,0.37339 0.487304,0 -0.351302,-1.54072 -1.250382,-2.29724 -3.632356,-3.05643 -11.272758,0.63688 -12.780084,6.17779 -0.255878,0.94061 -0.04191,0.76481 1.32459,-1.08828 z m 22.108133,-4.33658 c 0,-0.0733 -0.27781,-0.35107 -0.61736,-0.61736 -0.55953,-0.43881 -0.572,-0.42633 -0.13319,0.13319 0.46085,0.58764 0.75055,0.77452 0.75055,0.48417 z m -6.960647,-3.97876 c -0.238842,-0.0966 -0.715092,-0.10252 -1.058333,-0.0131 -0.343242,0.0894 -0.147825,0.16851 0.434258,0.1757 0.582083,0.007 0.862917,-0.066 0.624075,-0.16263 z"
         id="path20" /><path
         style="fill:#666666"
         d="m 89.397832,184.47965 c -10.160673,-3.76142 -13.231209,-17.80109 -5.473651,-25.02763 2.00244,-1.86537 3.036376,-3.60385 2.476381,-4.16385 -0.116347,-0.11635 -0.896182,0.41954 -1.732966,1.19086 -4.637935,4.2751 -11.022683,4.67297 -15.462563,0.96355 -3.97572,-3.32162 -7.567129,3.66936 -4.712083,9.17247 0.736605,1.41981 0.444462,1.4972 -1.453327,0.38502 -15.662828,-9.17902 -1.47202,-33.36081 16.76634,-28.57061 1.833018,0.48143 3.807837,0.87533 4.388486,0.87533 0.580649,0 1.953059,0.18534 3.0498,0.41187 2.498822,0.51612 3.853189,0.15796 2.369925,-0.62673 -0.533577,-0.28227 -0.970139,-0.71658 -0.970139,-0.96513 0,-0.24854 -0.487998,-0.91816 -1.084439,-1.48803 -0.596442,-0.56988 -1.654024,-1.98864 -2.350182,-3.15281 -1.846338,-3.08758 -1.792445,-3.03648 -2.68088,-2.54184 -2.081014,1.15861 -3.341902,2.43944 -3.93799,4.00028 l -0.633452,1.65867 -0.903387,-1.73495 c -3.115235,-5.98276 1.292248,-14.09704 8.591719,-15.81756 0.582083,-0.1372 1.650868,-0.65597 2.375078,-1.15281 4.841699,-3.32167 13.341648,-0.22315 18.212718,6.63915 5.05172,7.11679 7.39323,8.23484 13.18345,6.29494 11.33963,-3.79913 18.89288,0.8088 23.14431,14.1194 3.44953,10.79998 3.45743,10.86282 1.18817,9.46035 l -1.24622,-0.77021 0.27169,0.8584 c 0.67085,2.11952 0.56575,6.32646 -0.15805,6.32646 -1.02887,0 -4.46238,-1.61059 -6.39788,-3.00111 -1.9398,-1.3936 -2.22873,-1.49415 -1.76687,-0.61487 0.83829,1.59592 1.78424,10.07412 1.0411,9.33098 -0.23283,-0.23284 -0.67646,-0.42334 -0.98585,-0.42334 -0.30938,0 -1.97596,-0.70937 -3.70351,-1.57639 -1.72755,-0.86702 -3.15843,-1.5417 -3.17972,-1.49931 -0.0213,0.0424 -0.47895,1.13687 -1.017,2.43215 -2.27967,5.48804 -6.59257,8.41181 -12.81668,8.68863 -3.81621,0.16973 -4.54316,-0.13861 -2.65654,-1.12675 3.3308,-1.74457 6.05462,-7.36247 4.12401,-8.50583 -1.3382,-0.79251 -3.51425,-2.77702 -4.86267,-4.43465 -1.81478,-2.23094 -2.59711,-2.43318 -4.93147,-1.27482 -1.00452,0.49846 -2.67712,1.17749 -3.71688,1.50896 l -1.890479,0.60268 0.294679,1.79891 c 1.0235,6.2482 -2.512171,11.91689 -6.489585,10.40468 -1.16172,-0.44168 -1.136635,-0.46518 -1.136635,1.06481 0,3.46077 3.601275,7.71649 7.36647,8.70514 l 1.62936,0.42783 -1.763885,0.80904 c -2.520012,1.15584 -7.694326,1.32501 -10.358703,0.33867 z m -2.289616,-5.39916 c -1.251602,-2.18201 -2.070904,-5.92382 -1.936081,-8.84224 0.127456,-2.75893 -0.314062,-3.36919 -1.323256,-1.82896 -1.692248,2.58269 -0.361867,7.36963 3.161822,11.37675 1.032517,1.17417 1.060324,0.97298 0.09752,-0.70555 z m 7.003874,-10.84792 c -0.119916,-0.19403 -0.376778,-0.35278 -0.570806,-0.35278 -0.194028,0 -0.254665,0.15875 -0.134749,0.35278 0.119915,0.19403 0.376778,0.35278 0.570806,0.35278 0.194028,0 0.254665,-0.15875 0.134749,-0.35278 z m 3.527114,-1.05531 c 1.066846,-4.85732 -5.802551,-12.00885 -8.815886,-9.17797 -1.173472,1.10242 -1.051105,1.33072 1.230164,2.29508 1.053063,0.44516 2.238298,1.20379 2.633856,1.68584 0.395558,0.48206 1.195447,1.11807 1.77753,1.41336 1.60953,0.81652 2.742145,2.55856 2.577944,3.96506 -0.165889,1.42096 0.273832,1.28723 0.596392,-0.18137 z m -5.762891,-0.99433 c -1.597381,-1.3811 -2.031182,-3.35206 -0.762834,-3.46592 0.291042,-0.0261 0.759354,-0.0658 1.040695,-0.0882 0.795459,-0.0633 0.08595,-0.51774 -2.729421,-1.74824 -2.240716,-0.97934 -2.677248,-1.06638 -3.401011,-0.67814 -1.159924,0.6222 -3.340952,3.32959 -3.58515,4.45037 -0.111918,0.51366 -0.26462,1.13236 -0.339339,1.3749 -0.1903,0.61771 0.120462,0.55064 1.130713,-0.24402 2.367903,-1.8626 5.476812,-1.62764 8.41268,0.63579 1.948133,1.50193 2.084605,1.36377 0.233667,-0.23655 z m 29.645497,-0.86078 c 1.56127,-2.96556 1.04506,-8.73125 -0.78172,-8.73125 -1.25959,0 -1.2848,0.24618 -0.30832,3.01084 0.73185,2.07205 0.7903,4.96001 0.13362,6.60236 -0.48132,1.2038 0.17883,0.59504 0.95642,-0.88195 z m -6.41812,-5.99722 c 0.007,-5.72861 9.0658,-6.68674 11.3388,-1.19923 l 0.45123,1.08938 0.24277,-0.87112 c 0.73916,-2.65229 -0.52041,-7.21094 -2.61192,-9.45311 -5.66271,-6.07064 -15.25685,2.13155 -11.39881,9.74503 1.07481,2.12103 1.97592,2.43495 1.97793,0.68905 z m 9.28039,-8.09849 c -0.70354,-0.42068 -1.82729,-0.68338 -2.99861,-0.70099 -1.61574,-0.0243 -1.73054,-0.0684 -0.8347,-0.32056 1.1861,-0.33391 3.98089,0.22713 4.76115,0.95577 0.81396,0.76011 0.29489,0.79691 -0.92784,0.0658 z m -26.255968,6.80909 c -0.03608,-0.49605 -0.05917,-0.49402 -0.195022,0.0171 -0.167922,0.63181 -1.781049,1.10161 -2.086351,0.60762 -0.103834,-0.16801 -0.05255,-0.30547 0.113971,-0.30547 2.188149,0 -0.779438,-3.46252 -3.087529,-3.60247 -1.931514,-0.11711 -1.910188,-0.18495 0.284667,-0.90551 0.901058,-0.29581 1.436474,-0.26712 2.38125,0.12764 1.63753,0.6842 1.557602,0.3251 -0.104091,-0.46766 -1.643358,-0.78402 -4.017727,-0.15632 -4.648923,1.22901 -0.510282,1.11994 -0.56116,1.05661 1.070263,1.33224 1.037498,0.17528 1.863199,0.65948 2.910417,1.7067 0.804096,0.8041 1.581055,1.42231 1.726576,1.3738 0.145521,-0.0485 0.264583,0.0952 0.264583,0.31926 0,0.23107 0.305439,0.13104 0.705556,-0.23106 0.388056,-0.35119 0.68714,-0.89173 0.664633,-1.20121 z m 1.899718,-0.97047 c -0.23884,-0.0966 -0.71509,-0.10252 -1.058331,-0.0131 -0.343242,0.0894 -0.147826,0.1685 0.434258,0.17569 0.582083,0.007 0.862913,-0.066 0.624073,-0.16262 z m -19.506027,-1.48077 c 1.49456,-1.20321 2.830338,-3.42475 2.788651,-4.63783 -0.02648,-0.7707 -0.06365,-0.74214 -0.294612,0.22641 -1.152391,4.83253 -11.096264,7.80753 -10.731626,3.21068 0.02687,-0.33868 -0.146974,-0.48566 -0.440972,-0.37284 -0.736529,0.28263 -0.588907,0.6945 0.536028,1.49552 2.513321,1.78965 5.975263,1.82283 8.142531,0.0781 z M 59.36348,154.89945 c 0,-3.71316 6.130794,-8.81896 11.008444,-9.16795 l 2.435645,-0.17427 -0.942656,-0.98392 c -3.384106,-3.53225 -10.535025,0.39001 -12.262478,6.72593 -0.719562,2.63919 -0.980634,4.65007 -0.570836,4.3968 0.182534,-0.11281 0.331881,-0.47128 0.331881,-0.79659 z m 45.15555,0.87322 c 0,-0.062 -0.635,-0.96377 -1.41111,-2.00399 -1.7544,-2.35143 -1.87416,-2.05728 -0.14329,0.35196 1.12329,1.56354 1.5544,2.02173 1.5544,1.65203 z m 2.66559,-1.97204 c -0.10906,-0.17645 -1.03124,-0.9851 -2.0493,-1.79698 l -1.85101,-1.47617 1.91927,1.79699 c 1.86466,1.74585 2.38935,2.13683 1.98104,1.47616 z m -30.882405,-2.65108 c 0.01312,-1.77892 5.214115,-4.82396 6.685838,-3.91439 0.493566,0.30504 0.625448,-1.47907 0.186332,-2.52072 -1.300935,-3.08599 -4.526758,-5.04779 -8.309451,-5.05342 -3.711662,-0.006 -4.010989,0.50489 -1.669312,2.84657 3.102993,3.10299 3.82311,6.19151 2.173886,9.32362 l -0.927304,1.76108 0.927304,-0.85524 c 0.510018,-0.47039 0.929736,-1.18476 0.932707,-1.5875 z m 25.041815,0.72205 c 0,-0.0733 -0.27781,-0.35107 -0.61736,-0.61736 -0.55952,-0.43881 -0.572,-0.42633 -0.13319,0.13319 0.46086,0.58764 0.75055,0.77452 0.75055,0.48417 z m -15.824732,-1.9512 c -0.08322,-1.15259 0.02149,-1.38061 0.719926,-1.56765 1.521485,-0.40746 2.050452,-0.26421 2.087198,0.56524 0.03374,0.76149 0.04664,0.75791 0.317613,-0.0882 1.131081,-3.5318 -0.540074,-6.37022 -4.061453,-6.89828 -1.572573,-0.23582 -1.675213,-0.20594 -1.413495,0.41158 1.406755,3.31919 1.94717,5.3361 1.94717,7.2671 0,1.18768 0.112596,2.04682 0.250213,1.9092 0.137617,-0.13761 0.206389,-0.85716 0.152828,-1.59899 z m 9.962119,1.18412 c 0.120472,-0.31394 0.06133,-0.45555 -0.138645,-0.33195 -0.191806,0.11854 -0.348737,0.36491 -0.348737,0.54749 0,0.50744 0.252859,0.39562 0.487382,-0.21554 z m 13.623733,0.42578 c 0,-0.0669 -0.35719,-0.42413 -0.79375,-0.79375 l -0.79375,-0.67204 0.67203,0.79375 c 0.63155,0.74593 0.91547,0.95435 0.91547,0.67204 z m -21.96777,-0.4442 c -0.117225,-0.11723 -0.421496,-0.12976 -0.676158,-0.0279 -0.281422,0.11261 -0.197829,0.19621 0.213137,0.21313 0.371886,0.0153 0.580246,-0.0681 0.463021,-0.18528 z m 5.480255,-0.0352 c -0.433894,-0.0837 -1.227644,-0.0859 -1.763889,-0.005 -0.536244,0.0811 -0.181239,0.1496 0.7889,0.15225 0.970139,0.003 1.408884,-0.0637 0.974989,-0.14744 z m 2.015874,-3.25867 c -0.01381,-4.12364 -2.16554,-7.25967 -4.24372,-6.18501 -0.552838,0.28589 -1.251169,0.51979 -1.551846,0.51979 -0.674479,0 -0.674768,-0.0124 0.03283,1.40604 0.711339,1.42591 1.577404,5.80311 1.31202,6.63111 -0.164929,0.51459 -0.136826,0.52615 0.186455,0.0767 0.20936,-0.29104 0.383085,-0.80199 0.386056,-1.13545 0.0036,-0.4019 0.189847,-0.53551 0.552519,-0.39634 0.315293,0.12099 0.912617,-0.13343 1.40972,-0.60043 1.233759,-1.15906 1.915425,0.51755 1.082056,2.66139 -0.270291,0.69532 -0.266176,0.69562 0.283697,0.0208 0.384715,-0.47216 0.55556,-1.40324 0.550218,-2.99861 z m 1.307069,1.67697 c -0.112616,-0.28142 -0.196209,-0.19783 -0.213137,0.21314 -0.01532,0.37188 0.06806,0.58024 0.185286,0.46302 0.117225,-0.11723 0.129758,-0.4215 0.02785,-0.67616 z m 11.371282,0.66548 c -0.0808,-0.0584 -1.16342,-1.0506 -2.40572,-2.20486 -1.37389,-1.27651 -2.01193,-1.71477 -1.62873,-1.11875 0.68178,1.06043 3.33194,3.41169 3.85806,3.42293 0.17786,0.004 0.25723,-0.0409 0.17639,-0.0993 z m 5.71884,-1.56947 c 0.42073,-0.53647 0.41483,-0.56579 -0.045,-0.22376 -0.29104,0.21648 -0.76729,0.48176 -1.05833,0.58951 -0.44265,0.16388 -0.43529,0.20046 0.045,0.22376 0.31579,0.0153 0.79204,-0.24996 1.05833,-0.58951 z m 17.4821,-0.15434 c -0.11262,-0.28142 -0.19621,-0.19783 -0.21314,0.21313 -0.0153,0.37189 0.0681,0.58025 0.18529,0.46303 0.11722,-0.11723 0.12976,-0.4215 0.0279,-0.67616 z m -19.29099,0.25159 c 0,-0.092 -0.51522,-0.43376 -1.14494,-0.7594 -0.62972,-0.32564 -2.17253,-1.56003 -3.42846,-2.74309 -1.41558,-1.33344 -1.83854,-1.62824 -1.11281,-0.77562 1.83141,2.15164 5.68621,5.05186 5.68621,4.27811 z m -11.04668,-3.10954 c -0.286195,-0.8171 -0.639568,-1.80313 -0.785273,-2.19118 -0.16868,-0.44925 0.355982,-0.12886 1.444253,0.88194 1.88948,1.75497 1.41487,0.88626 -0.54841,-1.0038 -1.487184,-1.43173 -4.459792,-3.00071 -5.169311,-2.72845 -0.318132,0.12208 -0.419523,0.0471 -0.267961,-0.19811 0.146556,-0.23713 0.04832,-0.33023 -0.24626,-0.23338 -0.630616,0.20734 -0.84131,2.29327 -0.297787,2.94818 0.229251,0.27623 0.542778,0.42439 0.696726,0.32924 0.153948,-0.0951 0.201565,0.18442 0.105815,0.62125 -0.113743,0.51891 -0.06596,0.64365 0.137856,0.35983 0.230637,-0.32118 0.629414,-0.13857 1.529908,0.70058 3.515244,3.27578 4.415464,3.41183 3.400444,0.5139 z m 26.41328,1.32537 c -0.37663,-0.28487 -0.85288,-0.51232 -1.05833,-0.50544 -0.20545,0.007 0.0233,0.23937 0.5084,0.51666 1.14274,0.65325 1.42093,0.64758 0.54993,-0.0112 z m 3.31008,-1.11167 c -0.99463,-3.01892 -3.30351,-5.45561 -6.85862,-7.23828 -2.33266,-1.16968 -6.22672,-2.75133 -6.77386,-2.75133 -0.0754,0 0.8046,1.23696 1.95547,2.74881 2.17195,2.85319 3.58367,5.2078 3.58367,5.97722 0,0.24541 0.21671,0.4462 0.48159,0.4462 0.26487,0 0.89987,0.32902 1.41111,0.73116 0.51123,0.40213 0.92952,0.58588 0.92952,0.40833 0,-0.17756 -0.55563,-0.62206 -1.23472,-0.98778 -1.22058,-0.65732 -1.60465,-1.21005 -0.84082,-1.21005 0.22393,0 0.32509,-0.35998 0.23443,-0.83423 -0.2695,-1.40976 0.59711,-2.26536 1.48272,-1.4639 0.39114,0.35398 0.71117,0.93649 0.71117,1.29448 0,0.35798 0.15875,0.65087 0.35277,0.65087 0.19403,0 0.35278,0.48562 0.35278,1.07916 0,0.69269 0.13848,0.99357 0.38669,0.84017 0.39385,-0.24342 0.29116,-1.56553 -0.2139,-2.75412 -0.52869,-1.24419 1.21564,0.0577 1.84467,1.37683 0.40586,0.85109 0.69641,1.10539 0.98721,0.86405 0.29471,-0.24459 0.54461,0.0596 0.87741,1.06799 0.25594,0.77549 0.53487,1.34046 0.61985,1.25548 0.085,-0.085 -0.0451,-0.76045 -0.28914,-1.50106 z m -9.5768,-1.41402 c 0.0963,-0.9192 -2.32302,-5.31579 -3.71818,-6.75693 -0.25259,-0.26091 -0.69776,-0.9356 -0.98926,-1.4993 -0.9401,-1.81796 -1.57692,-1.33 -1.07952,0.82717 0.23488,1.01865 0.31703,2.38247 0.18255,3.03073 -0.16607,0.8006 -0.0254,1.80206 0.43866,3.12233 0.37573,1.06902 0.61598,2.36988 0.53388,2.89079 l -0.14926,0.9471 2.33854,-0.78452 c 2.08203,-0.69846 2.34996,-0.89342 2.44259,-1.77737 z m -6.43338,-4.25292 c -0.14353,-3.44128 -0.77183,-5.01428 -2.77948,-6.95865 l -1.81113,-1.75404 -0.24102,1.40126 c -0.13256,0.7707 -0.56696,2.22585 -0.96532,3.23367 -0.68891,1.74288 -0.69333,1.84223 -0.0905,2.03356 0.34859,0.11064 1.52859,1.03391 2.62223,2.05172 1.09364,1.01781 2.152,1.79603 2.35191,1.7294 0.19992,-0.0666 0.36348,0.0602 0.36348,0.28184 0,0.22164 0.14276,0.31476 0.31724,0.20692 0.17449,-0.10783 0.27915,-1.10939 0.23259,-2.22568 z m -10.23045,-0.99744 c 0.37663,-0.30543 0.46052,-0.43885 0.18641,-0.29648 -0.2741,0.14236 -0.98848,0.37601 -1.5875,0.51922 -1.00134,0.23938 -1.01637,0.26328 -0.18641,0.29648 0.49649,0.0199 1.21087,-0.21379 1.5875,-0.51922 z m -4.025529,-0.68364 c -0.844423,-0.48273 -1.796923,-0.87565 -2.116667,-0.87316 -0.319743,0.002 0.212398,0.38685 1.182537,0.85412 2.319919,1.1174 2.875239,1.12871 0.93413,0.019 z m 7.900619,-3.5145 c 1.11165,-2.91083 -1.39987,-9.12943 -2.72837,-6.75552 -0.19262,0.34419 -0.2734,0.70262 -0.17951,0.79651 0.0939,0.0939 -0.14307,0.9948 -0.52658,2.00201 -0.38352,1.00722 -0.77835,2.09592 -0.87741,2.41934 -0.11708,0.38226 0.33401,1.05251 1.28908,1.91536 1.08064,0.9763 1.42086,1.5205 1.28648,2.05779 -0.32257,1.28965 1.0477,-0.63241 1.73631,-2.43549 z m -7.44441,2.09642 c 0.37664,-0.28487 0.53539,-0.5129 0.35278,-0.50673 -0.1826,0.006 -0.640162,0.24429 -1.016795,0.52917 -0.376633,0.28487 -0.535383,0.51289 -0.352778,0.50672 0.182605,-0.006 0.640164,-0.24429 1.016793,-0.52916 z m -6.036888,-0.84443 c -1.779491,-0.11148 -3.299338,-0.28206 -3.377437,-0.37908 -0.0781,-0.097 -0.487524,-0.67722 -0.909832,-1.28936 l -0.767833,-1.11298 1.370111,0.18377 c 1.369354,0.18367 3.739471,-0.37598 4.106363,-0.96962 0.106905,-0.17298 -0.390122,-0.0703 -1.104503,0.2282 -0.911276,0.38076 -1.809995,0.47241 -3.011681,0.30713 -2.128043,-0.29268 -2.264618,0.25365 -0.524623,2.09858 l 1.188183,1.25984 3.133345,-0.0619 3.133345,-0.0619 z m 8.005098,-3.39209 c 3.70643,-7.45353 -0.0143,-13.28864 -9.002993,-14.11924 -2.428658,-0.22442 -2.454878,-0.21794 -1.5875,0.39225 3.232471,2.27399 4.233333,4.2279 4.233333,8.26444 0,2.88461 1.510315,5.88269 2.75235,5.46362 0.252612,-0.0852 0.368243,-0.008 0.256958,0.17241 -0.192196,0.31098 1.493452,2.13398 1.973202,2.13398 0.12497,0 0.74356,-1.03836 1.37465,-2.30746 z m 18.51367,0.67225 c 0.68539,-0.53858 0.68035,-0.54721 -0.17639,-0.30191 -1.07653,0.30825 -1.76657,0.88349 -1.04069,0.86757 0.28134,-0.006 0.82903,-0.26072 1.21708,-0.56566 z m 2.69353,-0.99682 c 0.65286,-0.28344 1.00682,-0.52157 0.78656,-0.52916 -0.22026,-0.008 -0.93463,0.2181 -1.5875,0.50155 -0.65287,0.28344 -1.00682,0.52157 -0.78656,0.52916 0.22026,0.008 0.93463,-0.2181 1.5875,-0.50155 z m 4.0901,-0.40333 c -0.11723,-0.11723 -0.4215,-0.12976 -0.67616,-0.0279 -0.28142,0.11261 -0.19783,0.19621 0.21313,0.21314 0.37189,0.0153 0.58025,-0.0681 0.46303,-0.18529 z m -1.58015,-0.37328 c -0.24254,-0.0979 -0.63941,-0.0979 -0.88195,0 -0.24253,0.0979 -0.0441,0.17794 0.44097,0.17794 0.48507,0 0.68351,-0.0801 0.44098,-0.17794 z M 79.941457,127.2804 c 1.636885,-2.21976 6.480764,-3.73269 10.135341,-3.16566 1.323605,0.20536 2.480346,0.37339 2.570535,0.37339 0.487304,0 -0.351302,-1.54072 -1.250382,-2.29724 -3.632356,-3.05643 -11.272758,0.63688 -12.780084,6.17779 -0.255878,0.94061 -0.04191,0.76481 1.32459,-1.08828 z"
         id="path19" /><path
         style="fill:#080808"
         d="m 89.777919,184.51925 c -10.497533,-3.74136 -13.678456,-17.843 -5.690101,-25.22529 2.27959,-2.10664 3.15172,-3.54311 2.52914,-4.16569 -0.278361,-0.27836 -0.807235,0.0327 -1.907339,1.12188 -4.668961,4.62253 -11.568177,4.91174 -16.005867,0.67094 l -1.066672,-1.01935 -1.097327,0.66732 c -3.098801,1.8845 -4.057438,5.84295 -2.33336,9.63504 0.93032,2.04622 0.758389,2.06434 -2.01494,0.21239 -14.583314,-9.73837 0.02385,-32.40443 17.985915,-27.90891 3.038953,0.76059 7.828849,1.50936 9.62813,1.5051 0.963063,-0.002 0.940761,-0.0477 -0.998116,-2.0308 -1.090754,-1.11566 -2.714694,-3.2191 -3.608756,-4.67431 -0.894061,-1.45521 -1.659838,-2.6966 -1.701726,-2.75864 -0.532461,-0.78866 -4.075184,2.35649 -5.011667,4.44925 l -0.677594,1.51421 -0.820302,-1.86699 c -2.708277,-6.164 1.020377,-13.24214 8.052682,-15.28649 1.062129,-0.30877 2.401597,-0.9082 2.976597,-1.33206 4.383101,-3.23105 13.693784,-0.0987 17.728124,5.96424 2.46709,3.70759 4.8138,6.06049 7.38962,7.40911 l 1.86867,0.97837 3.33449,-1.09541 c 13.43144,-4.41232 20.78622,0.53272 25.14238,16.90467 0.48571,1.82548 1.12572,4.00666 1.42223,4.84708 0.76528,2.16901 0.69543,2.30679 -0.74006,1.45984 -1.62131,-0.9566 -1.67546,-0.88052 -1.15762,1.62664 0.43102,2.08676 0.21499,4.70285 -0.38834,4.70285 -0.88716,0 -4.27105,-1.63159 -6.24326,-3.01026 -2.1236,-1.4845 -2.60386,-1.54026 -1.89743,-0.22029 0.17768,0.332 0.50736,1.86938 0.73262,3.41639 0.22527,1.54702 0.49696,3.40279 0.60377,4.12393 0.19322,1.3046 0.18912,1.30965 -0.82082,1.0094 -2.41463,-0.71785 -5.02028,-1.8544 -6.13236,-2.67487 l -1.19911,-0.88468 -0.6838,1.85422 c -2.44795,6.63802 -7.17195,9.79171 -14.66727,9.79171 h -2.31157 l 2.34461,-2.11609 c 3.63335,-3.27923 4.79133,-6.38301 2.85673,-7.65702 -0.52936,-0.34861 -2.26141,-1.94352 -3.849,-3.54425 -3.07649,-3.10196 -3.60456,-3.32377 -5.52479,-2.3206 -0.62095,0.32441 -2.16088,0.94109 -3.42206,1.3704 l -2.29306,0.78058 0.0645,1.54002 c 0.26641,6.36632 -0.179742,7.9521 -2.767845,9.83797 -1.329132,0.9685 -1.749871,1.09426 -3.20563,0.95814 l -1.675695,-0.15669 0.01971,1.27113 c 0.06065,3.91164 4.394338,8.77304 7.91779,8.88195 0.97093,0.03 0.8981,0.10874 -0.881945,0.95331 -2.618204,1.24224 -7.068337,1.46497 -9.802227,0.49061 z m -2.765454,-5.96793 c -1.408189,-2.76213 -2.049557,-6.09508 -1.731093,-8.99583 0.258404,-2.3537 -0.278304,-2.71133 -1.588288,-1.05834 -1.576369,1.98913 -0.396732,6.81691 2.573283,10.53139 2.00378,2.50605 2.202297,2.37908 0.746098,-0.47722 z m 10.140383,-9.85778 c 1.55055,-2.50884 0.296906,-6.96058 -2.634758,-9.35614 -2.948611,-2.4094 -4.622859,-2.70584 -6.047859,-1.0708 l -0.845517,0.97014 0.774244,0.61618 c 0.761506,0.60606 0.754929,0.60968 -0.399783,0.22049 -2.072227,-0.69844 -5.295638,2.28869 -5.854266,5.42513 -0.242732,1.36284 0.197964,1.80338 0.774118,0.77385 0.710912,-1.27033 5.087528,-2.00252 6.65961,-1.11413 1.6165,0.9135 5.026553,3.98559 5.044125,4.54422 0.04597,1.46149 1.316374,0.95489 2.530086,-1.00894 z m 24.666182,-3.90726 c 1.4936,-3.94677 0.56204,-9.01791 -1.51175,-8.22946 l -0.9145,0.34769 0.89279,2.56721 c 0.88639,2.54881 0.94471,4.32891 0.22817,6.96393 -0.44499,1.63641 0.52628,0.4091 1.30529,-1.64937 z m -6.71666,-5.06054 c 0,-5.96773 10.0146,-7.12503 11.18118,-1.29212 0.49028,2.4514 1.33125,0.28677 1.0978,-2.82571 -0.39069,-5.20905 -3.82254,-9.11579 -7.71841,-8.78646 -6.24261,0.52772 -9.31744,6.33263 -6.47518,12.22436 0.98507,2.04194 1.91461,2.37205 1.91461,0.67993 z m -17.225697,-0.54368 c 0.354827,-0.32111 0.645139,-0.85297 0.645139,-1.1819 0,-0.50203 0.519246,-0.63491 3.234148,-0.82762 1.77878,-0.12626 3.30914,-0.30456 3.40081,-0.39622 0.32311,-0.32311 -2.60102,-4.17573 -4.45853,-5.87422 -1.034278,-0.94574 -1.79581,-1.71953 -1.69229,-1.71953 0.494614,0 2.25033,0.91708 2.99926,1.56663 l 0.83757,0.72642 -0.24386,-0.79337 c -0.17517,-0.5699 0.3342,-0.23563 1.80826,1.18665 1.78978,1.72691 3.70458,2.95811 4.60052,2.95811 0.46381,0 1.22209,-2.05873 1.00419,-2.7264 -0.11218,-0.34374 -1.11615,-1.25207 -2.23105,-2.01851 -1.1149,-0.76644 -3.42336,-2.86109 -5.12993,-4.65479 -3.982972,-4.18632 -8.219735,-6.51143 -8.853854,-4.85894 -0.356852,0.92994 -0.245642,1.58086 0.437806,2.56252 1.450636,2.0836 1.817376,5.56357 0.797202,7.56459 -0.36714,0.72012 -0.510709,1.30931 -0.319042,1.30931 0.534507,0 2.397679,1.41278 2.397679,1.81807 0,0.19741 -0.707432,-0.0365 -1.572071,-0.51973 -1.329131,-0.74286 -1.635648,-0.80204 -1.983474,-0.38294 -0.226271,0.27264 -0.778029,0.49571 -1.226128,0.49571 -0.690518,0 -2.273882,1.55333 -2.273882,2.23075 0,0.0999 0.754062,0.33928 1.675694,0.53204 1.335173,0.27927 1.96245,0.67915 3.086806,1.96784 1.528585,1.75199 2.066234,1.934 3.059027,1.03553 z m -37.187971,-7.25535 c 1.976866,-3.49944 7.208047,-6.54153 10.679518,-6.21047 1.660029,0.15831 1.641851,0.20749 0.484237,-1.31022 -2.569136,-3.36831 -10.006574,0.25197 -12.069346,5.87493 -0.841325,2.29339 -1.345656,6.02627 -0.907512,6.71708 0.199024,0.3138 0.379144,-0.14983 0.53114,-1.36715 0.127974,-1.02494 0.696608,-2.66798 1.281963,-3.70417 z m 19.819231,3.93417 c 6.736079,-4.87959 2.881925,-16.28597 -5.487954,-16.24162 -3.902119,0.0207 -4.685615,0.75458 -2.500048,2.3418 4.552658,3.30626 4.509702,11.80762 -0.05966,11.80762 -0.949075,0 -1.270143,0.6068 -0.691743,1.30735 1.833452,2.22065 6.214241,2.61407 8.739407,0.78485 z m 6.835122,-4.53645 c 2.327484,-0.88491 2.135321,-7.67929 -0.247886,-8.76458 -2.623664,-1.19478 -4.764591,-1.1444 -3.953786,0.093 0.631619,0.96397 2.04514,5.21934 1.954826,5.88495 -0.382216,2.81689 0.215939,3.55874 2.246846,2.78659 z m 7.144871,-0.77534 c 2.007576,-3.88222 -1.313222,-10.2527 -4.632932,-8.88762 -1.813229,0.74561 -1.798964,0.69808 -0.790245,2.63335 0.608118,1.1667 0.777824,2.11182 0.79375,4.42056 l 0.02026,2.93659 2.019413,2e-5 c 1.90514,2e-5 2.051687,-0.0624 2.589756,-1.1029 z m 36.310924,-1.27833 c -0.92783,-5.83142 -2.90187,-8.42688 -8.46875,-11.13467 -6.50705,-3.16509 -6.95835,-3.07618 -4.04566,0.79698 1.19091,1.58363 2.55132,3.75219 3.02313,4.81903 0.49708,1.12399 1.01396,1.84322 1.2291,1.71025 0.2042,-0.1262 0.63908,-0.008 0.9664,0.26289 0.32732,0.27079 1.67352,1.0404 2.99155,1.71025 1.31803,0.66985 2.81617,1.65448 3.3292,2.18805 1.19304,1.24083 1.22665,1.22866 0.97503,-0.35278 z m -16.94639,-0.94025 c 1.49775,-1.14325 4.93689,-2.67572 6.00482,-2.67572 1.4371,0 0.87838,-2.17396 -1.45142,-5.64744 -0.9438,-1.4071 -2.06204,-3.07205 -2.48498,-3.69988 -1.06804,-1.58545 -2.05412,-1.95024 -1.6831,-0.62264 0.14973,0.53577 0.30695,2.24413 0.34937,3.79635 0.0424,1.55222 0.25508,3.26912 0.47257,3.81533 0.47584,1.19505 0.52018,3.29787 0.0753,3.5728 -0.17605,0.10881 -0.40257,-0.63589 -0.50337,-1.65487 -0.92559,-9.35614 -1.25945,-10.4023 -4.0543,-12.70417 -1.59117,-1.31051 -1.69638,-1.25647 -1.92827,0.99032 -0.39282,3.80601 -2.98762,6.86253 -5.82587,6.86253 h -1.64166 l 3.34442,3.37184 c 2.59693,2.61822 6.71781,5.73457 7.6629,5.79495 0.0468,0.003 0.79543,-0.53674 1.66356,-1.1994 z m 24.714,-6.10829 c -3.18342,-6.31489 -4.69008,-7.76211 -10.54259,-10.12665 -2.10208,-0.84928 -7.69326,0.076 -9.1278,1.51052 -0.45248,0.45248 3.57211,1.25339 5.76956,1.14817 3.90487,-0.18699 10.15729,3.97776 6.91257,4.60448 -0.4682,0.0904 -0.0994,0.51278 1.41111,1.61577 1.12475,0.82133 3.315,2.58995 4.86722,3.93027 3.59793,3.10675 3.60842,3.06712 0.70993,-2.68256 z m -33.3257,3.11001 c -0.21657,-0.40468 -0.55631,-0.73577 -0.75496,-0.73577 -0.35628,0 -0.18919,0.4529 0.49121,1.33144 0.52316,0.6755 0.71372,0.24511 0.26375,-0.59567 z m -0.54982,-6.35127 c 3.29173,-1.85044 4.37248,-7.54465 1.93787,-10.2102 -1.34766,-1.4755 -1.78831,-1.3122 -2.30664,0.85482 -1.09452,4.57597 -4.06991,7.89037 -7.111547,7.92183 -0.345998,0.004 0.560868,0.55243 2.01526,1.21968 2.792057,1.28094 3.516407,1.30929 5.465057,0.21387 z m 25.93365,0.15461 c 0,-0.24731 -2.86535,-1.66914 -3.03064,-1.50384 -0.077,0.077 0.45429,0.47095 1.18071,0.87538 1.35886,0.75655 1.84993,0.92338 1.84993,0.62846 z m -31.747749,-3.10876 c 0.384349,-0.26921 0.581089,-0.6072 0.4372,-0.75109 -0.143889,-0.14388 0.147684,-0.15888 0.64794,-0.0333 0.840599,0.21098 0.999979,0.046 2.102189,-2.17618 3.96584,-7.99552 -0.63996,-14.57531 -10.202604,-14.57531 h -1.591777 l 1.625654,1.03096 c 6.604579,4.1885 5.036524,14.33268 -2.051205,13.26981 -1.818357,-0.27268 -1.913588,0.2535 -0.427715,2.36325 1.164785,1.65384 7.509127,2.23856 9.460318,0.87189 z m -1.413362,-3.07202 c -0.207681,-0.38805 -0.298227,-0.70555 -0.201213,-0.70555 0.09701,0 0.34631,0.3175 0.553991,0.70555 0.207681,0.38806 0.298227,0.70556 0.201213,0.70556 -0.09701,0 -0.34631,-0.3175 -0.553991,-0.70556 z m 28.222221,2.82222 c 0,-0.58053 -0.23441,-0.70514 -1.32292,-0.70323 l -1.32291,0.002 1.05833,0.7009 c 1.3304,0.88109 1.5875,0.88109 1.5875,0 z m -44.857955,-9.24804 c 2.519051,-2.11964 7.527308,-3.07324 10.903095,-2.07601 1.361656,0.40224 1.470741,0.042 0.479506,-1.58352 -2.376671,-3.8975 -11.02709,-1.17854 -13.251001,4.16499 -0.786364,1.88945 -0.714832,2.85037 0.111332,1.4956 0.360009,-0.59035 1.150689,-1.49083 1.757068,-2.00106 z"
         id="path18" /></g></g></svg>
